<svg width="166" height="43" viewBox="0 0 166 43" fill="none" xmlns="http://www.w3.org/2000/svg">
<path d="M35.1486 42.776H8.05947C3.6078 42.776 0 39.2043 0 34.7971V7.97889C0 3.57174 3.6078 0 8.05947 0H35.1486C39.6003 0 43.2081 3.57174 43.2081 7.97889V34.7971C43.2081 39.2043 39.6003 42.776 35.1486 42.776Z" fill="#292F36"/>
<path d="M29.3882 21.7816C30.1586 22.738 30.55 23.8519 30.55 25.1111C30.55 26.9636 29.9263 28.4165 28.6788 29.4456C27.4314 30.4748 25.6458 31.0075 23.3222 31.0075H13.1714V9.39551H23.0776C25.3034 9.39551 27.0156 9.87981 28.2263 10.8363C29.4371 11.7928 30.0486 13.161 30.0486 14.9287C30.0486 16.2363 29.6939 17.3139 28.9968 18.1856C28.2997 19.0573 27.3825 19.6143 26.2451 19.8807C27.5782 20.1955 28.6177 20.8251 29.3882 21.7816ZM18.4425 18.234H21.9035C23.738 18.234 24.6552 17.4592 24.6552 15.9094C24.6552 14.3596 23.7135 13.5847 21.8424 13.5847H18.4425V18.234ZM25.1444 24.3847C25.1444 23.6098 24.8876 23.0044 24.3739 22.5685C23.8603 22.1327 23.1265 21.9147 22.1848 21.9147H18.4547V26.7699H22.2215C24.166 26.7578 25.1444 25.9708 25.1444 24.3847Z" fill="white"/>
<path d="M68.2426 31.0075L63.5219 22.847H62.3233V31.0075H57.04V9.39551H66.0534C67.7779 9.39551 69.2455 9.68609 70.4318 10.2794C71.6303 10.8726 72.523 11.6838 73.1223 12.713C73.7216 13.7421 74.0151 14.9166 74.0151 16.2484C74.0151 17.8224 73.5748 19.1542 72.7065 20.256C71.8259 21.3578 70.5663 22.1085 68.8908 22.5201L74.0762 31.0196H68.2426V31.0075ZM62.3233 19.2753H65.5887C66.6405 19.2753 67.411 19.0452 67.9002 18.5852C68.3894 18.1251 68.6462 17.447 68.6462 16.5511C68.6462 15.6914 68.3893 15.0255 67.8879 14.5291C67.3865 14.0448 66.616 13.7906 65.5887 13.7906H62.3233V19.2753Z" fill="#292F36"/>
<path d="M97.9124 27.0726H89.7307L88.3732 31.0197H82.8208L90.8191 9.56506H96.8974L104.896 31.0197H99.2822L97.9124 27.0726ZM96.5549 23.0892L93.8399 15.1467L91.0882 23.0892H96.5549Z" fill="#292F36"/>
<path d="M134.039 31.0075H128.756L119.926 17.7376V31.0075H114.643V9.39551H119.926L128.756 22.7865V9.39551H134.039V31.0075Z" fill="#292F36"/>
<path d="M163.66 25.8012C162.743 27.4358 161.422 28.7192 159.71 29.6393C157.985 30.5595 155.967 31.0196 153.644 31.0196H145.401V9.40759H153.644C155.992 9.40759 158.022 9.85557 159.722 10.7515C161.434 11.6475 162.743 12.9067 163.66 14.5412C164.577 16.1757 165.03 18.0403 165.03 20.1712C165.03 22.2779 164.565 24.1546 163.66 25.8012ZM157.973 24.7115C159.111 23.634 159.685 22.1084 159.685 20.1591C159.685 18.1977 159.111 16.6842 157.973 15.6067C156.836 14.5291 155.234 13.9843 153.167 13.9843H150.672V26.334H153.167C155.234 26.334 156.836 25.8012 157.973 24.7115Z" fill="#292F36"/>
</svg>
