<svg width="118" height="48" viewBox="0 0 118 48" fill="none" xmlns="http://www.w3.org/2000/svg">
<path d="M0 29.2057V0H17.3746V29.1914H0V29.2057ZM15.2695 22.411L15.7164 19.185L14.1015 19.028L13.6113 21.5117C12.602 22.0113 11.362 22.254 9.87683 22.254C7.85821 22.254 6.25772 21.6259 5.08981 20.3555C3.90747 19.0851 3.33072 17.4149 3.33072 15.3309C3.33072 13.3039 3.90747 11.6337 5.04655 10.3205C6.18563 9.00723 7.68522 8.3506 9.54523 8.3506C10.4969 8.3506 11.3043 8.4648 11.9531 8.67892C12.602 8.89303 13.1931 9.17853 13.7555 9.54966L14.2313 12.0049L15.875 11.8479L15.3992 8.62182C14.7071 8.03656 13.8852 7.56551 12.9336 7.19437C11.982 6.8375 10.7997 6.65193 9.40104 6.65193C7.74288 6.65193 6.31543 7.05162 5.11867 7.86527C3.92192 8.67892 2.9847 9.74951 2.32144 11.077C1.65818 12.4188 1.32654 13.8606 1.32654 15.4022C1.32654 17.8432 2.09073 19.8844 3.61911 21.5117C5.1475 23.139 7.13727 23.9527 9.60287 23.9527C12.0252 23.9527 13.9141 23.4388 15.2695 22.411Z" fill="#292F36"/>
<path d="M23.272 29.2057V0H30.7409V29.1914H23.272V29.2057ZM24.065 23.6957H29.9622V22.2255H27.9292V5.92393H24.0362V7.39421H26.098V22.2255H24.065V23.6957Z" fill="#292F36"/>
<path d="M36.6382 29.2057V0H49.7592V29.1914H36.6382V29.2057ZM39.0173 13.0755L38.5992 15.7305L40.1131 15.9161L40.5601 13.9319C41.2089 13.6179 41.9443 13.4609 42.8094 13.4609C43.8475 13.4609 44.5541 13.7178 44.9146 14.2317C45.275 14.7456 45.448 15.4165 45.448 16.2444V17.2722C45.1308 17.2436 44.7992 17.2151 44.4387 17.2008C44.0782 17.1865 43.7322 17.1723 43.3862 17.1723C42.0885 17.1723 40.8484 17.4007 39.6949 17.8574C38.5414 18.3142 37.9647 19.2706 37.9647 20.7124C37.9647 21.94 38.354 22.7822 39.1471 23.2389C39.9401 23.71 40.7187 23.9384 41.4829 23.9384C42.4201 23.9384 43.2275 23.6957 43.8908 23.2104C44.5541 22.7251 45.0732 22.1826 45.448 21.5545V21.6116C45.4769 23.1676 46.1834 23.9384 47.5676 23.9384C48.1011 23.9384 48.6057 23.8099 49.0815 23.553L49.0527 22.3682C48.822 22.4681 48.5625 22.5252 48.2741 22.5252C47.6108 22.5252 47.2792 22.1113 47.2792 21.2833V15.8162C47.2792 13.2468 45.895 11.9621 43.1266 11.9621C42.3624 11.9621 41.6415 12.0477 40.9638 12.219C40.2717 12.4046 39.6229 12.6901 39.0173 13.0755ZM45.4336 19.3848C45.3615 20.3269 44.9722 21.0835 44.2657 21.6259C43.5592 22.1826 42.8094 22.4538 42.002 22.4538C41.4973 22.4538 41.0071 22.3111 40.5457 22.0399C40.0699 21.7687 39.8391 21.2548 39.8391 20.5125C39.8391 19.6132 40.1996 19.0422 40.8917 18.771C41.5982 18.4998 42.3768 18.3713 43.2564 18.3713C43.6457 18.3713 44.0206 18.3856 44.381 18.4284C44.7415 18.457 45.102 18.4855 45.4192 18.4998V19.3848H45.4336Z" fill="#292F36"/>
<path d="M55.6709 29.2057V0H67.5952V29.1914H55.6709V29.2057ZM66.3407 20.3698C66.3407 19.4562 66.0956 18.7853 65.6054 18.3428C65.1151 17.9003 64.524 17.6005 63.803 17.4292C63.0821 17.2579 62.3756 17.1152 61.6691 17.001C60.9626 16.8868 60.357 16.7012 59.8668 16.4585C59.3765 16.2159 59.1314 15.7876 59.1314 15.1738C59.1314 14.5886 59.3621 14.1603 59.8379 13.8749C60.3137 13.5894 60.9049 13.4609 61.6402 13.4609C62.4909 13.4609 63.284 13.6465 64.0194 14.0319L64.3077 15.8876L65.8217 15.702L65.5333 13.0184C65.0431 12.7186 64.4519 12.4759 63.7454 12.2761C63.0389 12.0763 62.2891 11.9621 61.4816 11.9621C60.4147 11.9621 59.4342 12.219 58.5258 12.7186C57.6174 13.2182 57.1705 14.0747 57.1705 15.3023C57.1705 16.2016 57.4155 16.8582 57.9058 17.2722C58.396 17.7004 59.0016 17.9859 59.737 18.1572C60.4723 18.3285 61.1932 18.4712 61.9142 18.5997C62.6351 18.7139 63.2407 18.9138 63.731 19.1707C64.2212 19.4276 64.4663 19.8702 64.4663 20.5125C64.4663 21.1691 64.1491 21.6545 63.5146 21.9685C62.8802 22.2826 62.1593 22.4396 61.3374 22.4396C60.4146 22.4396 59.5495 22.254 58.7565 21.8686L58.8286 20.3412L57.3723 20.1842L57.0118 22.7964C57.5165 23.1247 58.1797 23.396 58.9872 23.6101C59.7946 23.8242 60.6021 23.9384 61.424 23.9384C62.8226 23.9384 63.9905 23.6244 64.9277 22.982C65.865 22.3682 66.3407 21.4832 66.3407 20.3698Z" fill="#292F36"/>
<path d="M73.4922 29.2057V0H85.4164V29.1914H73.4922V29.2057ZM84.162 20.3698C84.162 19.4562 83.9169 18.7853 83.4266 18.3428C82.9364 17.9003 82.3452 17.6005 81.6243 17.4292C80.9033 17.2579 80.1969 17.1152 79.4903 17.001C78.7838 16.8868 78.1782 16.7012 77.688 16.4585C77.1978 16.2159 76.9526 15.7876 76.9526 15.1738C76.9526 14.5886 77.1833 14.1603 77.6591 13.8749C78.1349 13.5894 78.7261 13.4609 79.4615 13.4609C80.3122 13.4609 81.1052 13.6465 81.8406 14.0319L82.129 15.8876L83.6429 15.702L83.3545 13.0184C82.8643 12.7186 82.2732 12.4759 81.5666 12.2761C80.8601 12.0763 80.1103 11.9621 79.3029 11.9621C78.2359 11.9621 77.2554 12.219 76.3471 12.7186C75.4387 13.2182 74.9917 14.0747 74.9917 15.3023C74.9917 16.2016 75.2368 16.8582 75.7271 17.2722C76.2173 17.7004 76.8229 17.9859 77.5583 18.1572C78.2936 18.3285 79.0145 18.4712 79.7354 18.5997C80.4564 18.7139 81.062 18.9138 81.5522 19.1707C82.0424 19.4276 82.2876 19.8702 82.2876 20.5125C82.2876 21.1691 81.9704 21.6545 81.336 21.9685C80.7016 22.2826 79.9806 22.4396 79.1587 22.4396C78.2359 22.4396 77.3708 22.254 76.5777 21.8686L76.6499 20.3412L75.1936 20.1842L74.8331 22.7964C75.3378 23.1247 76.001 23.396 76.8085 23.6101C77.6159 23.8242 78.4234 23.9384 79.2452 23.9384C80.6439 23.9384 81.8118 23.6244 82.749 22.982C83.6862 22.3682 84.162 21.4832 84.162 20.3698Z" fill="#292F36"/>
<path d="M91.314 29.2057V0H99.1722V29.1914H91.314V29.2057ZM92.4674 23.6957H98.3647V22.2255H96.3317V12.2047H92.4242V13.675H94.5149V22.2255H92.4819V23.6957H92.4674ZM94.3131 6.88033V9.23563H96.3029V6.88033H94.3131Z" fill="#292F36"/>
<path d="M105.069 29.2057V0H117.628V29.1914H105.069V29.2057ZM116.503 19.8273L114.932 19.4847C114.586 21.4261 113.533 22.3967 111.803 22.3967C110.649 22.3967 109.77 22.0113 109.164 21.2405C108.559 20.4697 108.256 19.3848 108.256 18.0145C108.256 16.7726 108.53 15.7163 109.063 14.8312C109.597 13.9462 110.491 13.518 111.731 13.518C112.682 13.518 113.519 13.7321 114.211 14.1603L114.658 16.1017L116.172 15.9161L115.725 13.1468C115.134 12.7043 114.514 12.3903 113.865 12.219C113.216 12.0477 112.509 11.9621 111.745 11.9621C109.943 11.9621 108.573 12.5901 107.679 13.8463C106.771 15.1025 106.324 16.5299 106.324 18.1144C106.324 19.9558 106.8 21.3975 107.766 22.411C108.717 23.4388 110.001 23.9527 111.601 23.9527C113.202 23.9527 114.384 23.5102 115.134 22.6394C115.883 21.7544 116.345 20.8265 116.503 19.8273Z" fill="#292F36"/>
<path d="M7.51224 45.1502C7.18061 45.7498 6.69036 46.2208 6.05594 46.5492C5.40709 46.8775 4.64289 47.0488 3.74893 47.0488H1.16797V38.9979H3.74893C4.64289 38.9979 5.42151 39.1549 6.05594 39.4833C6.69036 39.8116 7.18061 40.2684 7.51224 40.8822C7.84387 41.496 8.00247 42.1954 8.00247 43.0233C8.00247 43.837 7.84387 44.5507 7.51224 45.1502ZM6.08476 45.3073C6.64709 44.7648 6.92107 44.0083 6.92107 43.0233C6.92107 42.0384 6.64709 41.2818 6.08476 40.7394C5.52243 40.197 4.71498 39.9258 3.64799 39.9258H2.19173V46.1209H3.64799C4.71498 46.1209 5.52243 45.8497 6.08476 45.3073Z" fill="#292F36"/>
<path d="M13.3519 39.8401V42.5951H16.4375V43.3945H13.3519V46.2066H16.7836V47.0488H12.2993V38.9979H16.7836V39.8401H13.3519Z" fill="#292F36"/>
<path d="M25.8962 46.0211C25.7088 46.3494 25.4348 46.6206 25.0599 46.8204C24.685 47.0203 24.2236 47.1345 23.6613 47.1345C23.1278 47.1345 22.6376 47.0346 22.2194 46.849C21.8013 46.6492 21.4697 46.3922 21.2102 46.0496C20.965 45.707 20.8208 45.3216 20.7776 44.8934H21.9022C21.9311 45.1218 22.0032 45.3502 22.1329 45.5643C22.2627 45.7784 22.4646 45.964 22.7097 46.1067C22.9548 46.2495 23.2576 46.3208 23.6181 46.3208C24.0795 46.3208 24.44 46.2066 24.6851 45.9497C24.9302 45.6928 25.0599 45.393 25.0599 45.0076C25.0599 44.6793 24.9734 44.408 24.8004 44.2082C24.6274 44.0084 24.4111 43.8371 24.166 43.7229C23.9209 43.6087 23.5604 43.4802 23.1278 43.3375C22.6088 43.1662 22.2051 43.0091 21.8878 42.8664C21.5706 42.7237 21.3111 42.4953 21.0948 42.1955C20.8785 41.8957 20.7632 41.5103 20.7632 41.025C20.7632 40.611 20.8641 40.2399 21.066 39.9116C21.2678 39.5975 21.5562 39.3406 21.9455 39.1693C22.3204 38.998 22.7818 38.9124 23.2865 38.9124C24.0795 38.9124 24.7283 39.0979 25.1897 39.4833C25.6655 39.8687 25.9251 40.3541 26.0116 40.9536H24.8869C24.8292 40.6396 24.6562 40.3541 24.3967 40.1114C24.1227 39.8687 23.7622 39.7403 23.3008 39.7403C22.8827 39.7403 22.5367 39.8545 22.2916 40.0686C22.032 40.2827 21.9167 40.5967 21.9167 40.9822C21.9167 41.2962 22.0032 41.5531 22.1618 41.7387C22.3348 41.9386 22.5367 42.0813 22.7818 42.1955C23.0269 42.3097 23.3729 42.4239 23.7911 42.5666C24.3102 42.7379 24.7283 42.895 25.0599 43.052C25.3771 43.209 25.6511 43.4374 25.8674 43.7371C26.0837 44.0369 26.199 44.4509 26.199 44.9648C26.1702 45.3359 26.0837 45.6928 25.8962 46.0211Z" fill="#292F36"/>
<path d="M31.5194 38.9979V47.0488H30.4668V38.9979H31.5194Z" fill="#292F36"/>
<path d="M42.1605 39.6118C42.8093 40.0828 43.2419 40.7109 43.4582 41.5103H42.3479C42.1605 41.025 41.8288 40.6253 41.3819 40.3398C40.9349 40.04 40.4014 39.8973 39.7814 39.8973C39.2335 39.8973 38.7288 40.0257 38.2962 40.2827C37.8637 40.5396 37.5177 40.8965 37.2581 41.3675C37.013 41.8386 36.8832 42.3953 36.8832 43.0377C36.8832 43.6943 37.013 44.2653 37.2581 44.7363C37.5032 45.2074 37.8637 45.5785 38.3107 45.8355C38.7576 46.0924 39.2767 46.2209 39.8679 46.2209C40.3726 46.2209 40.8195 46.1067 41.2377 45.9068C41.6558 45.6927 41.9874 45.3787 42.2614 44.979C42.5353 44.5793 42.6795 44.094 42.7372 43.5515H39.5363V42.7807H43.6167V43.7371C43.5446 44.3795 43.3428 44.9505 43.0112 45.4786C42.6795 46.0068 42.2326 46.4065 41.6702 46.7062C41.1079 47.006 40.4735 47.163 39.7525 47.163C38.9739 47.163 38.2818 46.9917 37.6762 46.6491C37.0706 46.3065 36.6092 45.8212 36.2776 45.1931C35.946 44.5793 35.7729 43.8656 35.7729 43.0662C35.7729 42.2668 35.946 41.5531 36.2776 40.9393C36.6092 40.3255 37.0851 39.8259 37.6762 39.4833C38.2674 39.1407 38.9595 38.9551 39.7381 38.9551C40.7186 38.9266 41.5116 39.155 42.1605 39.6118Z" fill="#292F36"/>
<path d="M54.2575 47.0488H53.205L48.9803 40.6823V47.0488H47.9277V38.9979H48.9803L53.205 45.3644V38.9979H54.2575V47.0488Z" fill="#292F36"/>
<path d="M69.426 46.0211C69.2386 46.3494 68.9646 46.6206 68.5897 46.8204C68.2148 47.0203 67.7535 47.1345 67.1911 47.1345C66.6577 47.1345 66.1674 47.0346 65.7493 46.849C65.3311 46.6492 64.9995 46.3922 64.7399 46.0496C64.4948 45.707 64.3507 45.3216 64.3074 44.8934H65.432C65.4609 45.1218 65.533 45.3502 65.6628 45.5643C65.7925 45.7784 65.9943 45.964 66.2395 46.1067C66.4846 46.2495 66.7874 46.3208 67.1478 46.3208C67.6092 46.3208 67.9697 46.2066 68.2148 45.9497C68.4599 45.6928 68.5897 45.393 68.5897 45.0076C68.5897 44.6793 68.5032 44.408 68.3302 44.2082C68.1572 44.0084 67.9409 43.8371 67.6958 43.7229C67.4506 43.6087 67.0902 43.4802 66.6577 43.3375C66.1386 43.1662 65.7348 43.0091 65.4176 42.8664C65.1004 42.7237 64.8409 42.4953 64.6246 42.1955C64.4083 41.8957 64.293 41.5103 64.293 41.025C64.293 40.611 64.3938 40.2399 64.5957 39.9116C64.7976 39.5975 65.086 39.3406 65.4753 39.1693C65.8502 38.998 66.3116 38.9124 66.8162 38.9124C67.6093 38.9124 68.2581 39.0979 68.7195 39.4833C69.1953 39.8687 69.4549 40.3541 69.5414 40.9536H68.4167C68.359 40.6396 68.186 40.3541 67.9264 40.1114C67.6525 39.8687 67.2921 39.7403 66.8307 39.7403C66.4125 39.7403 66.0665 39.8545 65.8213 40.0686C65.5618 40.2827 65.4464 40.5967 65.4464 40.9822C65.4464 41.2962 65.5329 41.5531 65.6915 41.7387C65.8646 41.9386 66.0664 42.0813 66.3115 42.1955C66.5567 42.3097 66.9027 42.4239 67.3209 42.5666C67.8399 42.7379 68.2581 42.895 68.5897 43.052C68.9069 43.209 69.1809 43.4374 69.3972 43.7371C69.6134 44.0369 69.7288 44.4509 69.7288 44.9648C69.6999 45.3359 69.6135 45.6928 69.426 46.0211Z" fill="#292F36"/>
<path d="M78.9857 38.9979V39.8401H76.6931V47.0488H75.6261V39.8401H73.3335V38.9979H78.9857Z" fill="#292F36"/>
<path d="M83.8884 38.9979V43.8227C83.8884 44.6078 84.0614 45.1931 84.4219 45.5785C84.7824 45.9496 85.2582 46.1495 85.8926 46.1495C86.5126 46.1495 86.9885 45.9639 87.3345 45.5785C87.6806 45.1931 87.8536 44.6221 87.8536 43.837V39.0122H88.9062V43.837C88.9062 44.9361 88.6322 45.7641 88.0843 46.3065C87.5364 46.8632 86.801 47.1344 85.8782 47.1344C84.9698 47.1344 84.2345 46.8632 83.6866 46.3065C83.1387 45.7498 82.8647 44.9361 82.8647 43.837V39.0122H83.8884V38.9979Z" fill="#292F36"/>
<path d="M99.7631 45.1502C99.4315 45.7498 98.9412 46.2208 98.3068 46.5492C97.658 46.8775 96.8938 47.0488 95.9999 47.0488H93.4189V38.9979H95.9999C96.8938 38.9979 97.6724 39.1549 98.3068 39.4833C98.9412 39.8116 99.4315 40.2684 99.7631 40.8822C100.095 41.496 100.253 42.1954 100.253 43.0233C100.253 43.837 100.095 44.5507 99.7631 45.1502ZM98.3501 45.3073C98.9125 44.7648 99.1864 44.0083 99.1864 43.0233C99.1864 42.0384 98.9125 41.2818 98.3501 40.7394C97.7878 40.197 96.9803 39.9258 95.9134 39.9258H94.4571V46.1209H95.9134C96.9659 46.1209 97.7878 45.8497 98.3501 45.3073Z" fill="#292F36"/>
<path d="M105.617 38.9979V47.0488H104.564V38.9979H105.617Z" fill="#292F36"/>
<path d="M115.941 39.4262C116.546 39.7831 117.022 40.2684 117.368 40.8965C117.714 41.5246 117.887 42.2383 117.887 43.0234C117.887 43.8085 117.714 44.5222 117.368 45.1503C117.022 45.7784 116.546 46.2637 115.941 46.6206C115.335 46.9775 114.658 47.1488 113.908 47.1488C113.158 47.1488 112.466 46.9775 111.86 46.6206C111.255 46.2637 110.765 45.7784 110.418 45.1503C110.072 44.5222 109.899 43.8085 109.899 43.0234C109.899 42.2383 110.072 41.5246 110.418 40.8965C110.765 40.2684 111.24 39.7831 111.86 39.4262C112.48 39.0694 113.158 38.8981 113.908 38.8981C114.658 38.8981 115.335 39.0694 115.941 39.4262ZM112.394 40.2541C111.947 40.5111 111.601 40.868 111.356 41.3533C111.111 41.8243 110.981 42.3811 110.981 43.0234C110.981 43.6515 111.111 44.2082 111.356 44.6935C111.601 45.1789 111.947 45.5357 112.394 45.7927C112.841 46.0496 113.331 46.1781 113.893 46.1781C114.441 46.1781 114.946 46.0496 115.393 45.7927C115.84 45.5357 116.186 45.1646 116.431 44.6935C116.676 44.2225 116.806 43.6658 116.806 43.0377C116.806 42.3953 116.676 41.8386 116.431 41.3676C116.186 40.8965 115.84 40.5254 115.393 40.2684C114.946 40.0115 114.456 39.883 113.893 39.883C113.345 39.8687 112.841 39.9972 112.394 40.2541Z" fill="#292F36"/>
</svg>
