<svg width="147" height="45" viewBox="0 0 147 45" fill="none" xmlns="http://www.w3.org/2000/svg">
<path d="M20.4457 8.82887L21.5271 8.60048C21.801 8.60048 22.0317 8.65758 22.1903 8.77178C22.3489 8.88597 22.4354 9.00017 22.4354 9.10009C22.4354 9.20001 22.4066 9.35703 22.3633 9.5426C22.3201 9.72817 21.9164 11.641 21.1666 15.2524C20.4168 18.8639 19.8689 21.5618 19.5229 23.3318C21.1954 21.0764 23.1564 18.3072 25.3913 15.0097C27.6262 11.7123 28.9383 9.52833 29.3132 8.44346C29.4285 8.10087 29.5871 7.84393 29.7746 7.65836C29.962 7.47279 30.135 7.3586 30.2792 7.33005C30.4234 7.3015 30.6541 7.27295 30.9569 7.27295C31.2597 7.27295 31.6202 7.34432 32.0383 7.47279C32.4565 7.60127 32.6728 7.81538 32.6728 8.12942C32.6728 8.7004 31.8076 10.3705 30.0918 13.1112C28.376 15.8519 26.4006 18.7639 24.1801 21.8472C21.9596 24.9305 20.114 27.3715 18.6289 29.1701C18.3694 29.4841 18.0377 29.6554 17.6629 29.6554C17.288 29.6554 16.8842 29.584 16.4661 29.4556C16.048 29.3271 15.8317 29.0987 15.8317 28.7561C15.8317 27.6855 16.7833 22.5182 18.6866 13.2825C17.0573 15.3666 15.0819 18.2786 12.7605 22.0043C10.3381 25.8584 8.96837 28.2565 8.65115 29.1701C8.47813 29.7268 8.27627 30.0551 8.04557 30.1408C7.88696 30.2121 7.71393 30.2407 7.54091 30.2407L6.37299 30.3691C6.14229 30.3691 5.94043 30.312 5.73857 30.1836C5.55112 30.0551 5.4502 29.9266 5.4502 29.7839C5.4502 29.3985 5.99811 28.228 7.07952 26.2866C8.16092 24.3453 9.44418 22.2327 10.9005 19.9487C12.3568 17.6648 13.8707 15.4523 15.4568 13.2968C17.0429 11.1414 18.2684 9.68535 19.1336 8.95734C19.3066 8.80032 19.5085 8.72895 19.7392 8.72895L20.4457 8.82887Z" fill="#292F36"/>
<path d="M37.7767 18.5072C38.5265 18.5072 38.9014 18.7641 38.9014 19.2637C38.9014 19.5349 38.8437 19.7348 38.714 19.8632C38.5842 19.9917 38.3102 20.4057 37.8921 21.1337C37.474 21.8474 37.0125 22.761 36.5079 23.8887C36.0032 25.0021 35.6716 25.9585 35.5274 26.7436C35.4986 26.8435 35.4842 26.972 35.4842 27.1575C35.4842 27.7 35.6284 27.9569 35.9311 27.9569C36.2339 27.9569 36.58 27.8142 36.9837 27.5429C37.3874 27.2574 37.7479 26.972 38.0651 26.6436C38.3823 26.3296 38.6851 26.0013 38.9879 25.673C39.2907 25.3447 39.4637 25.1448 39.5214 25.102C39.5791 25.0592 39.6656 25.0306 39.7809 25.0306C39.9684 25.0306 40.0837 25.1734 40.127 25.4589C40.1703 25.7443 40.1847 26.0298 40.1847 26.3439C40.1847 26.6579 40.1558 26.8578 40.0982 26.972C39.8098 27.5287 39.1898 28.1996 38.2093 28.9847C37.2433 29.7698 36.3493 30.1552 35.5563 30.1552C34.7632 30.1552 34.1721 29.9125 33.8116 29.4414C33.4511 28.9704 33.2493 28.428 33.2493 27.857C33.2493 27.2717 33.3502 26.7721 33.5521 26.3296C32.7302 27.3859 31.793 28.2709 30.7404 29.0132C29.6734 29.7412 28.8227 30.1124 28.145 30.1124C27.4674 30.1124 26.9339 29.9125 26.5013 29.5128C25.9534 29.0132 25.6938 28.328 25.6938 27.443C25.6938 26.558 25.8957 25.673 26.2994 24.7737C26.7032 23.8887 27.2222 23.0607 27.8711 22.3327C28.5199 21.5905 29.2409 20.9195 30.0195 20.32C31.6488 19.0496 33.1627 18.4215 34.5469 18.4215C35.0804 18.4215 35.513 18.5072 35.8446 18.6785C36.1763 18.8497 36.3926 19.0781 36.4791 19.3351C36.7098 18.9782 36.9116 18.7641 37.0847 18.6642C37.2144 18.55 37.4595 18.5072 37.7767 18.5072ZM35.8158 20.1345C34.1288 20.1345 32.3841 21.0623 30.5818 22.918C29.9474 23.5889 29.3562 24.374 28.8083 25.3018C28.2604 26.2297 28.0009 26.8578 28.0009 27.2003C28.0009 27.5429 28.1018 27.7142 28.3037 27.7142C28.5776 27.7142 29.3418 27.1718 30.6106 26.1012C31.8795 25.0306 32.7158 24.2312 33.1195 23.7174C33.5809 23.1464 34.4749 21.9473 35.8158 20.1345Z" fill="#292F36"/>
<path d="M48.9947 10.7701L49.6003 10.9129C49.6868 10.9129 49.7733 10.9557 49.831 11.0414C49.9031 11.127 49.932 11.2127 49.932 11.284C49.932 11.3554 49.831 11.5695 49.6147 11.9121C49.3985 12.2547 49.1677 12.6401 48.8794 13.0683C48.591 13.4966 48.4468 13.7392 48.4324 13.7821C49.1966 13.725 49.7445 13.6964 50.0617 13.6964C50.3789 13.6964 50.5952 13.725 50.725 13.7678C50.8403 13.8106 50.9845 13.9391 51.1287 14.1389C51.2873 14.3388 51.4171 14.4958 51.5468 14.5957C51.6766 14.6956 51.7343 14.8527 51.7343 15.0525C51.7343 15.2523 51.6045 15.4379 51.3594 15.5664C51.1143 15.7091 50.8403 15.7948 50.5519 15.8233C48.2594 16.0517 47.0049 16.1659 46.7742 16.1802C45.9812 17.3935 44.8565 19.2778 43.4291 21.8329C42.0016 24.388 41.2374 26.0011 41.1509 26.6434C41.1077 26.9432 41.0933 27.1716 41.0933 27.3572C41.0933 27.7426 41.2951 27.9281 41.6989 27.9281C42.1026 27.9281 42.5495 27.7711 43.0398 27.4713C43.53 27.1573 43.9914 26.829 44.3951 26.4721C45.5054 25.5015 46.0966 25.0019 46.1687 25.0019C46.4282 25.0019 46.558 25.4444 46.558 26.3151C46.558 26.7862 46.3417 27.2144 45.8947 27.5998C44.8998 28.442 44.0635 29.0844 43.3858 29.5126C42.7082 29.9408 42.0305 30.155 41.3384 30.155C41.1942 30.155 41.05 30.1407 40.9203 30.1121C40.1272 29.9694 39.5505 29.6839 39.19 29.2557C38.8151 28.8274 38.6421 28.2564 38.6421 27.5427C38.6421 26.829 38.8584 25.944 39.2909 24.9162C39.7235 23.8884 40.257 22.7893 40.9058 21.6331C41.9728 19.7346 43.0398 17.9645 44.0924 16.3087L43.53 16.38C42.391 16.5085 41.7277 16.5656 41.5402 16.5656H41.4105C41.1221 16.5656 40.8481 16.5085 40.5886 16.3943C40.3291 16.2801 40.1849 16.1374 40.1849 15.9803C40.1849 15.8091 40.257 15.652 40.4012 15.495C40.5454 15.338 40.6319 15.2095 40.6607 15.1239C40.7328 14.9098 40.9923 14.6671 41.4393 14.4101C41.8863 14.1532 42.2179 14.0105 42.4486 13.9962C42.6793 13.9819 42.8956 13.9676 43.1119 13.9534C43.3282 13.9391 43.5589 13.9391 43.8184 13.9248C44.0779 13.9105 44.2798 13.9105 44.424 13.8963L45.7505 13.8392C46.5724 12.6116 47.1491 11.8122 47.4519 11.4696C47.7691 11.1127 47.9422 10.9272 47.9854 10.8986C48.0287 10.8701 48.1296 10.8415 48.2882 10.8415L48.9947 10.7701Z" fill="#292F36"/>
<path d="M57.8621 25.0306C58.0495 25.0306 58.1649 25.1733 58.2081 25.4588C58.2514 25.7443 58.2658 26.0298 58.2658 26.3438C58.2658 26.6579 58.237 26.8577 58.1793 26.9719C57.8909 27.5143 57.2709 28.1852 56.3049 28.9703C55.3388 29.7554 54.416 30.1551 53.5509 30.1551C53.0174 30.1551 52.5272 29.9981 52.0658 29.6841C51.6188 29.37 51.3881 28.8133 51.3881 28.0282C51.3881 27.2431 51.6044 26.458 52.0225 25.7015C49.5713 28.7419 47.668 30.2551 46.2694 30.2551C45.7215 30.2551 45.2745 30.0552 44.9285 29.6698C44.5824 29.2844 44.4238 28.8847 44.4238 28.4565C44.4238 28.0425 44.4815 27.6143 44.5968 27.1718C44.7122 26.7292 44.842 26.3296 44.9717 25.9727C45.1015 25.6158 45.3034 25.1876 45.5629 24.6737C45.8224 24.1598 46.0243 23.7887 46.1397 23.546C46.255 23.3034 46.4713 22.9608 46.7597 22.4897C47.048 22.0186 47.4085 21.3763 47.8699 20.5769C48.3313 19.7775 48.7062 19.178 49.009 18.7926C49.3118 18.4072 49.6001 18.2073 49.8885 18.2073C50.1769 18.2073 50.422 18.3215 50.6383 18.5499C50.8546 18.7783 50.9699 18.9782 50.9699 19.1209C50.9699 19.2637 50.6383 19.9203 49.975 21.0908C48.0285 24.5881 47.048 26.615 47.048 27.2003C47.048 27.343 47.1057 27.4144 47.2066 27.4144C47.6824 27.4144 48.8648 26.4009 50.7392 24.3739C52.6137 22.347 53.7095 21.048 54.0123 20.477C54.3151 19.906 54.589 19.4207 54.8774 19.0353C55.1514 18.6499 55.3676 18.4072 55.5118 18.3215C55.93 18.0503 56.4779 17.9076 57.1556 17.879C57.2709 17.879 57.343 17.879 57.4007 17.8933C57.4584 17.9076 57.5304 17.9932 57.6025 18.136C57.6746 18.2787 57.7179 18.4072 57.7179 18.5071C57.6314 18.7783 57.2421 19.5063 56.5355 20.6911C55.8434 21.8759 55.4542 22.5468 55.3821 22.6895C54.2141 25.0734 53.6374 26.6293 53.6374 27.343C53.6374 27.757 53.796 27.9569 54.1132 27.9569C54.69 27.8855 55.3821 27.4287 56.1895 26.6008C56.4923 26.301 56.7807 25.987 57.0691 25.6729C57.3574 25.3589 57.5449 25.1733 57.6025 25.1305C57.6746 25.0591 57.7612 25.0306 57.8621 25.0306Z" fill="#292F36"/>
<path d="M62.1445 21.6475C64.4659 19.0353 66.4557 17.722 68.085 17.722C68.4887 17.722 68.8204 17.8362 69.0799 18.0789C69.3394 18.3216 69.4692 18.6213 69.4692 19.0067C69.4692 19.3921 69.1952 20.0202 68.6473 20.9195C68.0994 21.8045 67.5948 22.5611 67.1334 23.1749C66.8882 23.4889 66.6143 23.646 66.2971 23.646C65.9943 23.646 65.7492 23.5318 65.5761 23.3034C65.4031 23.075 65.3166 22.818 65.3166 22.5183C65.3166 21.8474 65.6771 21.0765 66.4124 20.2343L66.3836 20.2058C66.0519 20.2343 65.2589 20.8767 63.9612 22.1043C62.678 23.3462 61.5822 24.4596 60.6738 25.4303C59.7798 26.4152 58.7993 27.6 57.7323 29.0132C57.4296 29.4271 57.17 29.6413 56.9537 29.6413C56.7375 29.6413 56.4635 29.5699 56.1175 29.4414C55.7714 29.3129 55.5551 29.213 55.483 29.1559C55.4109 29.0988 55.3677 28.9989 55.3677 28.8562C55.3677 28.7277 55.4109 28.5564 55.483 28.3851C55.5551 28.1995 55.7137 27.9426 55.9156 27.6143C56.1175 27.286 56.4491 26.7435 56.8816 26.0013C57.3142 25.259 57.9775 24.1313 58.8858 22.6325C59.7942 21.1336 60.3277 20.2201 60.5152 19.906C60.8901 19.2637 61.1928 18.7926 61.438 18.5071C61.8849 17.9504 62.6347 17.6792 63.6873 17.6792C63.918 17.6792 64.0478 17.8219 64.0478 18.1217C64.0478 18.5785 63.6152 19.4492 62.7645 20.7054L62.1445 21.6475Z" fill="#292F36"/>
<path d="M78.0485 18.6784C78.0485 19.3207 77.7889 19.8917 77.2555 20.377C76.722 20.8624 76.1308 21.105 75.4531 21.105C75.2368 21.105 75.0926 21.0479 75.0205 20.948C74.9485 20.8481 74.9196 20.7053 74.9196 20.5483C74.9196 20.3913 74.934 20.22 74.9773 20.063C74.6168 20.1772 74.2275 20.3628 73.7949 20.6054C73.3624 20.8481 72.8289 21.205 72.1945 21.6903C71.56 22.1756 71.2428 22.5182 71.2428 22.7609C71.2428 22.8323 71.3582 22.8751 71.5889 22.8751C71.8196 22.8751 72.1801 22.7894 72.6559 22.6324C73.1317 22.4754 73.4777 22.3897 73.6652 22.3897C73.8526 22.3897 73.9824 22.404 74.0401 22.4183C74.1698 22.4897 74.2996 22.6324 74.4582 22.8608C74.6024 23.0892 74.6745 23.2748 74.6745 23.4032C74.6745 23.5317 74.5447 23.703 74.2852 23.9171C74.0257 24.1312 73.7373 24.2882 73.4201 24.4024C73.0884 24.5166 72.8722 24.6023 72.7712 24.6594C70.6949 25.8156 69.6568 26.6007 69.6568 27.029C69.6568 27.7855 70.3056 28.1709 71.6177 28.1709C72.454 28.1709 73.3047 27.914 74.141 27.3858C74.8619 26.9433 75.5108 26.4865 76.0875 26.0155C76.6643 25.5587 77.0247 25.2732 77.1834 25.159C77.342 25.0448 77.4573 25.002 77.5294 25.002C77.7889 25.002 77.9187 25.2875 77.9187 25.8584C77.9187 26.4294 77.8899 26.8006 77.8178 26.9719C77.7457 27.1574 77.5582 27.3716 77.2266 27.6428C75.1215 29.3414 73.1173 30.1979 71.2428 30.1979C70.2335 30.1979 69.4405 30.0552 68.8349 29.7839C67.7247 29.2843 67.1768 28.5278 67.1768 27.5C67.1768 26.1582 68.114 25.1304 70.0028 24.4453C69.628 24.274 69.3828 24.0741 69.2819 23.8029C69.1666 23.546 69.1233 23.132 69.1233 22.561C69.1233 21.99 69.3972 21.3905 69.9307 20.7482C70.4642 20.1058 71.1275 19.5777 71.9061 19.178C73.6363 18.2501 75.1936 17.7933 76.5489 17.7933C76.8806 17.7933 77.1978 17.8647 77.5438 18.0217C77.8899 18.1787 78.0485 18.3929 78.0485 18.6784Z" fill="#292F36"/>
<path d="M111.702 8.74325H111.889C111.947 8.74325 111.99 8.74325 112.004 8.75753C112.019 8.7718 112.033 8.7718 112.062 8.78608C112.091 8.78608 112.105 8.80035 112.134 8.8289C112.177 8.87172 112.249 8.91455 112.336 8.95737C112.451 9.04302 112.509 9.14294 112.509 9.25714C112.509 9.37133 112.394 9.614 112.163 9.98514C111.932 10.3563 111.341 11.2556 110.375 12.7116C108.169 16.0518 106.194 19.1637 104.449 22.0186C101.435 26.9861 99.9071 29.4842 99.8782 29.5127C99.8494 29.5413 99.835 29.5698 99.8205 29.5983C99.8061 29.6554 99.7773 29.684 99.7052 29.684L99.5033 29.6412L99.0996 29.7411L98.8689 29.6983L98.6238 29.7411H98.5373L97.7154 29.8553C97.2252 29.8553 96.9801 29.684 96.9801 29.3557C96.9801 29.2129 97.0233 29.0416 97.1098 28.8418C97.4126 28.1281 98.9554 25.5444 101.724 21.0622C99.9071 21.105 98.1047 21.1335 96.3312 21.1335L93.1591 21.1193C92.64 21.9472 91.9191 23.1177 91.0107 24.6451C89.0498 27.9711 88.0116 29.6412 87.8818 29.6697C87.7521 29.6983 87.6511 29.7268 87.5646 29.7268C87.4781 29.7268 87.406 29.684 87.3484 29.5841C87.2763 29.4984 87.233 29.4413 87.2042 29.4413C87.1753 29.4413 87.1321 29.4556 87.0456 29.4984C86.9735 29.5413 86.8581 29.5555 86.6995 29.5555L86.3535 29.5413L86.2237 29.4556C86.2093 29.4556 86.1949 29.4699 86.1804 29.4984C86.166 29.527 86.1228 29.5413 86.0651 29.5413C85.6469 29.5413 85.4307 29.37 85.4307 29.0131C85.4307 28.7847 85.5172 28.4707 85.6758 28.0852C85.8488 27.6998 86.0651 27.2859 86.3391 26.8434C86.613 26.4009 87.3051 25.3303 88.4442 23.6601C89.5688 21.99 90.1312 21.1478 90.1312 21.1335C89.9437 21.1193 89.7274 21.1193 89.4823 21.105C88.9777 21.105 88.6316 21.0907 88.4153 21.0479C87.853 20.948 87.4637 20.4912 87.2618 19.6775C87.1465 19.2779 87.1032 19.0209 87.1177 18.8924C87.1177 18.6355 87.233 18.4928 87.4637 18.4928L87.853 18.5927C88.0549 18.607 88.5163 18.6212 89.266 18.6641C90.0158 18.7069 90.5493 18.7212 90.8809 18.7212L91.7172 18.6926C93.0005 16.7084 94.5289 14.4531 96.3168 11.9407C95.0191 12.9971 93.5772 13.5252 91.9912 13.5252C91.2414 13.5252 90.5926 13.3539 90.0591 12.9971C89.5112 12.6402 89.2516 12.1834 89.2516 11.641C89.2516 11.0986 89.4535 10.6703 89.8716 10.342C90.2898 10.028 90.6791 9.87094 91.054 9.87094C91.4288 9.87094 91.6163 9.92804 91.6163 10.0422C91.6163 10.0851 91.5586 10.1279 91.4577 10.1707C91.3567 10.2278 91.2991 10.2706 91.2991 10.3135C91.2991 10.4705 91.4721 10.6132 91.8181 10.7274C92.1642 10.8416 92.5535 10.913 92.9861 10.913C93.4186 10.913 93.9377 10.7845 94.5721 10.5418C95.2066 10.2992 95.8554 9.97086 96.5331 9.58545C97.4847 9.04302 98.2345 8.58623 98.7824 8.22937C99.0996 8.07235 99.388 8.00098 99.6764 8.00098C99.9647 8.00098 100.152 8.02953 100.282 8.1009C100.412 8.158 100.498 8.22937 100.556 8.28647C100.614 8.34357 100.686 8.42921 100.743 8.52914C100.815 8.62906 100.873 8.7147 100.945 8.75753C101.003 8.81463 101.046 8.87172 101.046 8.9431C101.046 9.01447 101.003 9.11439 100.931 9.27141C100.859 9.41416 100.484 10.0137 99.8061 11.0557C99.1285 12.0978 98.2489 13.4253 97.1819 15.0383C96.1149 16.6513 95.3363 17.8361 94.8461 18.607C97.4847 18.607 100.325 18.5641 103.382 18.4642C107.102 12.6545 109.063 9.614 109.265 9.32851C109.467 9.04302 109.654 8.85745 109.827 8.7718C110 8.68616 110.202 8.64333 110.447 8.64333L111.702 8.74325Z" fill="#292F36"/>
<path d="M116.518 18.4785C116.821 18.4785 117.123 18.607 117.426 18.8782C117.743 19.1494 117.888 19.5491 117.888 20.0916C117.888 20.634 117.7 21.3334 117.311 22.2042C116.921 23.0607 116.402 23.9457 115.725 24.845C115.061 25.73 114.312 26.5722 113.519 27.3573C112.711 28.1424 111.846 28.7847 110.923 29.2844C109.986 29.784 109.15 30.0409 108.386 30.0409C107.621 30.0409 107.016 29.7982 106.554 29.3272C106.093 28.8561 105.862 28.1995 105.862 27.3573C105.862 26.5151 106.079 25.573 106.497 24.5595C106.915 23.5317 107.448 22.6324 108.112 21.8473C108.775 21.0622 109.481 20.3628 110.26 19.7347C111.86 18.45 113.274 17.8219 114.485 17.8219C115.033 17.8219 115.436 17.9504 115.71 18.2216C115.811 18.3072 115.854 18.3929 115.854 18.45V18.5356C116.013 18.4785 116.229 18.4785 116.518 18.4785ZM115.033 20.4199H114.932C114.586 20.4199 114.413 20.1772 114.413 19.6776C113.692 19.906 112.942 20.3199 112.149 20.9052C111.356 21.4905 110.649 22.1899 110.029 22.9893C108.76 24.588 108.126 25.9441 108.112 27.0433C108.112 27.5857 108.313 27.8569 108.717 27.8569C109.121 27.8569 109.727 27.5857 110.52 27.0718C111.313 26.5579 112.106 25.8014 112.899 24.8164C113.677 23.8458 114.268 22.9893 114.658 22.2756C115.047 21.5618 115.249 21.0765 115.249 20.8053C115.234 20.5483 115.162 20.4199 115.033 20.4199Z" fill="#292F36"/>
<path d="M117.57 29.7125L116.849 29.6839H116.59C116.489 29.6554 116.388 29.5983 116.272 29.5127C116.157 29.427 116.07 29.3556 116.013 29.3271C115.955 29.2985 115.926 29.2129 115.926 29.113C115.926 29.013 115.97 28.8275 116.042 28.5848C117.959 24.4024 119.819 21.0479 121.622 18.5498C121.824 18.2786 122.141 18.0645 122.573 17.9217C123.006 17.779 123.438 17.7076 123.857 17.7076C124.102 17.7076 124.231 17.8932 124.231 18.2786C124.231 18.3928 124.188 18.5355 124.116 18.7068C124.044 18.8924 123.842 19.1779 123.525 19.5918C123.208 20.0058 122.833 20.4769 122.4 20.9908C121.968 21.5046 121.723 21.8187 121.665 21.9043C123.02 20.5197 124.231 19.4919 125.327 18.8068C126.423 18.1358 127.202 17.7933 127.692 17.7933C128.182 17.7933 128.557 17.936 128.817 18.2072C129.076 18.4784 129.206 18.7782 129.206 19.0922C129.206 19.4063 129.177 19.6775 129.134 19.8773C129.091 20.0915 129.004 20.3056 128.889 20.534C128.773 20.7624 128.672 20.9622 128.586 21.1192C128.499 21.2762 128.355 21.4904 128.168 21.7473C127.966 22.0042 127.836 22.1898 127.764 22.2897C127.692 22.3897 127.533 22.5752 127.303 22.8464C127.072 23.1177 126.942 23.2747 126.928 23.3032C127.202 23.032 127.591 22.6323 128.081 22.0899C128.572 21.5475 128.99 21.105 129.336 20.7481C129.682 20.3912 130.1 19.9773 130.619 19.5205C131.138 19.0637 131.614 18.6926 132.046 18.4213C133.113 17.7647 134.195 17.4221 135.291 17.4221C135.666 17.4221 135.983 17.5363 136.242 17.779C136.502 18.0216 136.632 18.2929 136.632 18.6212C136.632 18.9495 136.228 19.7346 135.435 20.9622C134.642 22.1898 133.834 23.4317 133.041 24.6736C132.248 25.9155 131.845 26.7006 131.845 27.0289C131.845 27.4714 131.931 27.7426 132.09 27.8283C132.263 27.9139 132.465 27.9425 132.695 27.9282C132.926 27.9139 133.272 27.7569 133.69 27.4714C134.123 27.1859 134.498 26.9004 134.829 26.5864C135.377 26.101 135.867 25.63 136.343 25.1732C136.444 25.0875 136.545 25.0447 136.675 25.0447C136.862 25.0447 136.978 25.1875 137.021 25.473C137.064 25.7584 137.079 26.0439 137.079 26.358C137.079 26.672 137.05 26.8719 136.992 26.9861C136.704 27.5285 136.069 28.1994 135.103 28.9988C134.123 29.7839 133.185 30.1836 132.292 30.1836C132.176 30.1836 132.104 30.1836 132.061 30.1693C131.052 30.0694 130.345 29.7981 129.956 29.3414C129.566 28.8846 129.379 28.3421 129.379 27.7283C129.379 27.1145 129.595 26.3437 130.028 25.4587C130.46 24.5737 130.922 23.76 131.441 23.0463C131.96 22.3326 132.421 21.6759 132.854 21.0907C133.286 20.5054 133.503 20.1914 133.503 20.1486C133.503 20.1057 133.459 20.0772 133.387 20.0772C133.085 20.0772 132.407 20.5625 131.34 21.5475C129.538 23.2176 127.98 24.8306 126.668 26.3723C126.322 26.7862 125.5 27.814 124.217 29.4841C124.073 29.6839 123.828 29.7839 123.511 29.7839C123.193 29.7839 122.862 29.7268 122.516 29.5983C122.17 29.4698 121.997 29.3128 121.997 29.1272C121.997 29.0273 122.775 27.657 124.347 25.0162C125.918 22.3754 126.697 20.9337 126.697 20.7053C126.697 20.4626 126.553 20.3484 126.264 20.3484C125.976 20.3484 125.371 20.7766 124.462 21.6331C121.968 23.9884 120.036 26.3437 118.666 28.6705C118.579 28.8132 118.406 29.0273 118.147 29.3128C117.887 29.5983 117.657 29.7125 117.57 29.7125Z" fill="#292F36"/>
<path d="M146.163 18.6784C146.163 19.3207 145.903 19.8917 145.37 20.377C144.836 20.8624 144.245 21.105 143.567 21.105C143.351 21.105 143.207 21.0479 143.135 20.948C143.063 20.8481 143.034 20.7053 143.034 20.5483C143.034 20.3913 143.048 20.22 143.092 20.063C142.731 20.1772 142.342 20.3628 141.909 20.6054C141.477 20.8481 140.943 21.205 140.309 21.6903C139.674 22.1756 139.357 22.5182 139.357 22.7609C139.357 22.8323 139.472 22.8751 139.703 22.8751C139.934 22.8751 140.294 22.7894 140.77 22.6324C141.246 22.4754 141.592 22.3897 141.779 22.3897C141.967 22.3897 142.097 22.404 142.154 22.4183C142.284 22.4897 142.414 22.6324 142.572 22.8608C142.717 23.0892 142.789 23.2748 142.789 23.4032C142.789 23.5317 142.659 23.703 142.399 23.9171C142.14 24.1312 141.852 24.2882 141.534 24.4024C141.203 24.5166 140.986 24.6023 140.885 24.6594C138.809 25.8156 137.771 26.6007 137.771 27.029C137.771 27.7855 138.42 28.1709 139.732 28.1709C140.568 28.1709 141.419 27.914 142.255 27.3858C142.976 26.9433 143.625 26.4865 144.202 26.0155C144.779 25.5587 145.139 25.2732 145.298 25.159C145.456 25.0448 145.572 25.002 145.644 25.002C145.903 25.002 146.033 25.2875 146.033 25.8584C146.033 26.4294 146.004 26.8006 145.932 26.9719C145.86 27.1574 145.672 27.3716 145.341 27.6428C143.236 29.3414 141.232 30.1979 139.357 30.1979C138.348 30.1979 137.555 30.0552 136.949 29.7839C135.839 29.2843 135.291 28.5278 135.291 27.5C135.291 26.1582 136.228 25.1304 138.117 24.4453C137.742 24.274 137.497 24.0741 137.396 23.8029C137.281 23.546 137.238 23.132 137.238 22.561C137.238 21.99 137.511 21.3905 138.045 20.7482C138.578 20.1058 139.242 19.5777 140.02 19.178C141.751 18.2501 143.308 17.7933 144.663 17.7933C144.995 17.7933 145.312 17.8647 145.658 18.0217C146.004 18.1787 146.163 18.3929 146.163 18.6784Z" fill="#292F36"/>
<path d="M0 33.6666C3.79212 35.2368 7.65633 36.4502 11.5926 37.378C15.5001 38.3487 19.4797 39.0339 23.4593 39.4621C25.4491 39.7333 27.4533 39.7619 29.4286 39.9474C31.4328 39.9617 33.4226 40.1187 35.4124 40.0045L38.3971 39.9332C39.392 39.9189 40.3868 39.7904 41.3817 39.7333C42.3766 39.6477 43.3715 39.6048 44.352 39.4764L47.3078 39.0624C51.273 38.6342 55.1228 37.7206 58.9582 36.6215C62.8368 35.5651 66.4991 34.1662 70.3778 32.7102C74.3429 31.2685 78.6397 30.3264 82.9942 30.7832C85.1426 31.0544 87.3054 31.7396 89.0645 32.9957C90.838 34.2376 92.1068 36.0077 92.9143 37.8633C91.7031 36.2075 90.1891 34.8514 88.4444 34.0092C86.6998 33.167 84.7821 32.8244 82.8788 32.8815C79.029 32.9386 75.2369 34.2091 71.6755 35.8078C68.0564 37.5779 64.1345 39.1766 60.1837 40.5041C56.2042 41.7746 52.0948 42.7881 47.9278 43.3019C39.6371 44.3868 31.1444 44.4011 22.9546 42.7595C18.8453 42.0172 14.8369 40.861 10.9582 39.3907C7.10842 37.8633 3.34514 36.079 0 33.6666Z" fill="#292F36"/>
<path d="M137.886 9.89958C134.671 8.5435 131.398 7.48718 128.081 6.65926C124.78 5.78851 121.434 5.17471 118.075 4.74648C116.402 4.48953 114.701 4.43244 113.028 4.23259C111.341 4.18977 109.669 4.01847 107.982 4.08985C107.145 4.10412 106.295 4.10412 105.458 4.08985C104.622 4.08985 103.771 4.17549 102.935 4.20404C102.099 4.26114 101.248 4.27542 100.412 4.36106L97.903 4.66083C94.5434 4.93204 91.2848 5.61722 88.0262 6.45942C84.7243 7.24452 81.5954 8.35793 78.2647 9.47135C74.8475 10.599 71.1419 11.2842 67.4218 10.7703C65.5906 10.4706 63.7451 9.82821 62.2888 8.68624C60.8036 7.55856 59.7943 6.01691 59.1743 4.40388C60.198 5.81706 61.4669 6.9733 62.9232 7.68703C64.3795 8.40076 65.98 8.70052 67.5804 8.68624C70.8102 8.68624 74.0112 7.65848 77.0391 6.37377C80.1247 4.91777 83.5131 3.63306 86.8871 2.57675C90.2899 1.56325 93.8369 0.792428 97.3839 0.421291C104.464 -0.320985 111.702 -0.149691 118.637 1.47761C122.112 2.20561 125.5 3.31902 128.745 4.68938C132.003 6.08828 135.147 7.71558 137.886 9.89958Z" fill="#292F36"/>
</svg>
