<svg width="104" height="103" viewBox="0 0 104 103" fill="none" xmlns="http://www.w3.org/2000/svg">
<g style="mix-blend-mode:multiply">
<path d="M51.6765 101.606C79.8186 101.606 102.632 79.0206 102.632 51.16C102.632 23.2993 79.8186 0.713745 51.6765 0.713745C23.5344 0.713745 0.720703 23.2993 0.720703 51.16C0.720703 79.0206 23.5344 101.606 51.6765 101.606Z" fill="white"/>
<path d="M51.6767 102.32C23.1853 102.32 0 79.3664 0 51.1599C0 22.9535 23.1853 0 51.6767 0C80.1681 0 103.353 22.9535 103.353 51.1599C103.353 79.3664 80.1681 102.32 51.6767 102.32ZM51.6767 1.42745C23.9783 1.42745 1.44187 23.7386 1.44187 51.1599C1.44187 78.5813 23.9783 100.892 51.6767 100.892C79.3751 100.892 101.912 78.5813 101.912 51.1599C101.912 23.7386 79.3751 1.42745 51.6767 1.42745Z" fill="#292F36"/>
<path d="M58.9437 5.83827C59.2898 5.86682 59.5925 5.88109 59.8377 5.88109L59.8088 6.10949C59.4051 6.16658 59.0591 6.46635 58.7851 7.03733L55.3534 13.832L55.2525 13.8177L55.166 13.8035L52.9888 6.22368C52.8446 5.72407 52.5995 5.45286 52.2534 5.41003L52.2823 5.18164C52.5995 5.23874 53.0176 5.28156 53.5367 5.33866C54.2144 5.39576 54.719 5.43858 55.0506 5.43858L55.0218 5.66697C54.719 5.6527 54.5027 5.66697 54.373 5.7098C54.2432 5.75262 54.1711 5.86682 54.1567 6.00956C54.1423 6.13803 54.1711 6.3236 54.2432 6.56627L55.8437 12.3617L58.2228 7.62259C58.4246 7.23717 58.5256 6.92313 58.5544 6.69474C58.5832 6.45207 58.5111 6.26651 58.3525 6.13803C58.1939 6.00956 57.9344 5.93819 57.5883 5.89537L57.6172 5.66697C58.0353 5.73835 58.4823 5.79545 58.9437 5.83827Z" fill="#292F36"/>
<path d="M68.6332 8.85021C68.489 8.85021 68.3737 8.90731 68.2872 9.02151C68.2007 9.13571 68.0997 9.32127 67.9988 9.59249L65.9369 15.0168C65.836 15.288 65.7783 15.5021 65.7783 15.6449C65.7783 15.7876 65.8216 15.9018 65.9225 15.9875C66.0234 16.0731 66.2109 16.1731 66.4704 16.2872L66.3839 16.5014C66.0523 16.3586 65.5909 16.1731 64.9997 15.9447C64.3653 15.702 63.8895 15.545 63.5723 15.4451L63.6588 15.2309C63.9327 15.3166 64.1346 15.3594 64.2644 15.3594C64.3941 15.3594 64.5239 15.3023 64.6104 15.1881C64.6969 15.0739 64.7979 14.8883 64.8988 14.6171L66.9607 9.1928C67.0616 8.92159 67.1193 8.70747 67.1193 8.56472C67.1193 8.42198 67.076 8.30778 66.9751 8.22214C66.8742 8.13649 66.6867 8.03657 66.4272 7.92237L66.5137 7.70825C66.8165 7.83672 67.2779 8.02229 67.9123 8.26496C68.5035 8.49335 68.9793 8.65037 69.3253 8.75029L69.2388 8.96441C68.9793 8.87876 68.7774 8.83594 68.6332 8.85021Z" fill="#292F36"/>
<path d="M81.4658 16.4014C81.3216 16.3728 81.1774 16.4157 81.0477 16.5013C80.9179 16.5869 80.7593 16.7582 80.5863 17.0009L76.4048 22.6108L76.1886 22.4538L76.7509 13.4323L73.0453 18.3998C72.8722 18.6425 72.7569 18.8423 72.6992 18.9993C72.6415 19.1564 72.6704 19.2991 72.7425 19.4419C72.8146 19.5846 72.9876 19.7416 73.2327 19.9415L73.0885 20.127C72.8722 19.9415 72.555 19.6988 72.1369 19.3848C71.762 19.1135 71.4592 18.8994 71.2285 18.771L71.3727 18.5854C71.6034 18.7424 71.7908 18.8281 71.935 18.8423C72.0792 18.8709 72.2234 18.8281 72.3532 18.7424C72.4829 18.6425 72.6415 18.4855 72.8146 18.2428L76.2174 13.6749C76.3904 13.4323 76.5058 13.2467 76.549 13.1182C76.5923 12.9898 76.5779 12.8613 76.5058 12.7471C76.4337 12.6329 76.2895 12.4902 76.0588 12.3046L76.203 12.119C76.3904 12.2903 76.6788 12.5187 77.0681 12.7899C77.3565 13.004 77.6016 13.1753 77.8323 13.3038L77.3709 20.8693L80.37 16.8439C80.543 16.6012 80.6728 16.4014 80.716 16.2444C80.7593 16.0873 80.7449 15.9446 80.6728 15.8018C80.6007 15.6591 80.4277 15.4878 80.1825 15.3022L80.3267 15.1167C80.543 15.3022 80.8602 15.5449 81.2784 15.8589C81.6532 16.1302 81.956 16.3443 82.1867 16.4728L82.0426 16.6583C81.7974 16.5156 81.61 16.4157 81.4658 16.4014Z" fill="#292F36"/>
<path d="M86.2962 22.8392C86.6711 22.568 87.0604 22.2682 87.4785 21.8971C87.839 22.4395 88.4734 23.3388 89.3818 24.6093C90.2902 25.8654 90.939 26.7504 91.3283 27.2643C90.8381 27.5498 90.42 27.8068 90.0451 28.0637C89.7279 28.2921 89.4683 28.4919 89.2809 28.6489L89.1223 28.4348C89.5837 28.0351 89.9009 27.7068 90.0883 27.4642C90.2758 27.2215 90.3479 26.9646 90.3335 26.6933C90.319 26.4221 90.146 26.0938 89.8721 25.6941L89.4972 25.1802L84.0325 29.0344C83.7729 29.2199 83.5855 29.3912 83.499 29.5197C83.4125 29.6482 83.3836 29.8052 83.4413 29.9765C83.4846 30.1335 83.6143 30.3619 83.8018 30.6474L83.6143 30.7901C83.398 30.4475 83.0664 29.9622 82.6339 29.377C82.1725 28.7346 81.8264 28.2778 81.5957 27.9923L81.7831 27.8496C81.9994 28.1208 82.1725 28.3064 82.3166 28.4063C82.4608 28.5062 82.605 28.5348 82.7636 28.4919C82.9222 28.4491 83.1385 28.3349 83.398 28.1493L88.8627 24.2952L88.4879 23.7813C88.1995 23.3816 87.9399 23.139 87.6948 23.0248C87.4497 22.9106 87.1757 22.8963 86.8874 22.9962C86.599 23.0962 86.1809 23.2817 85.6474 23.5815L85.4888 23.3674C85.705 23.2532 85.9646 23.0819 86.2962 22.8392Z" fill="#292F36"/>
<path d="M89.0642 42.6523L88.8335 42.7237C88.747 42.4096 88.6316 42.0099 88.4586 41.5246C88.2423 40.8965 88.0693 40.4255 87.9395 40.1114L88.1702 40.04C88.2712 40.3113 88.3865 40.5111 88.473 40.611C88.574 40.711 88.7037 40.7395 88.8479 40.6824C88.9777 40.6396 89.1363 40.5397 89.3237 40.3826L90.9242 39.0837L90.0158 36.4143L88.6749 36.3572C88.2423 36.3287 87.9107 36.3572 87.68 36.4429C87.4493 36.5285 87.3051 36.657 87.2474 36.8426C87.2042 37.0281 87.233 37.2993 87.334 37.6277L87.1033 37.699C86.9879 37.2708 86.8437 36.8426 86.6995 36.4143C86.5842 36.086 86.4833 35.8148 86.3823 35.6007L86.613 35.5293C86.8149 35.8719 87.2474 36.0575 87.8819 36.0717L95.5526 36.4143L95.6103 36.5856L89.4968 41.6245C89.1219 41.9814 88.9777 42.3097 89.0642 42.6523ZM94.0675 36.5856L90.2898 36.4286L91.1405 38.9409L94.0675 36.5856Z" fill="#292F36"/>
<path d="M90.1168 53.5724C90.261 53.5153 90.3331 53.4439 90.3331 53.344C90.3331 53.2869 90.3187 53.2441 90.2898 53.2013C90.261 53.1584 90.2033 53.0728 90.1168 52.9586C89.9005 52.6874 89.7419 52.4019 89.6266 52.1164C89.5112 51.8309 89.4535 51.5026 89.4535 51.1457C89.4391 50.3464 89.5977 49.6612 89.9149 49.0759C90.2466 48.4907 90.708 48.0481 91.3424 47.7341C91.9624 47.4201 92.7122 47.263 93.5917 47.2488C94.5001 47.2345 95.2931 47.3772 95.9708 47.6913C96.6485 48.0053 97.182 48.4336 97.5569 49.0045C97.9318 49.5755 98.1336 50.2179 98.1336 50.9316C98.1336 51.2456 98.1048 51.5311 98.0471 51.7738C97.9894 52.0165 97.9029 52.2306 97.802 52.4162C97.701 52.6017 97.5713 52.8158 97.3983 53.0442C97.3262 53.1442 97.2829 53.2298 97.2829 53.2869C97.2829 53.4297 97.528 53.5296 98.0038 53.5724V53.8436C97.4992 53.8151 96.5908 53.8151 95.2931 53.8436V53.5724C95.7113 53.501 96.0573 53.4154 96.3313 53.3297C96.6052 53.2441 96.8359 53.1156 97.0378 52.9586C97.3117 52.7302 97.5424 52.4304 97.701 52.0593C97.8597 51.6882 97.9317 51.317 97.9317 50.9173C97.9173 50.4034 97.7443 49.9609 97.3983 49.5755C97.0522 49.1901 96.562 48.9046 95.942 48.6905C95.3075 48.4907 94.5866 48.3907 93.7503 48.405C92.7987 48.4193 92.0345 48.5335 91.4289 48.7476C90.8233 48.9617 90.3908 49.2758 90.1024 49.6897C89.814 50.1037 89.6842 50.6318 89.6987 51.2742C89.7131 51.7453 89.8428 52.1449 90.088 52.4875C90.1889 52.6303 90.2754 52.7159 90.3763 52.7587C90.4628 52.8016 90.5926 52.8158 90.7512 52.8158L91.8903 52.8016C92.2219 52.8016 92.4526 52.7587 92.6112 52.7016C92.7554 52.6445 92.8708 52.5304 92.914 52.3591C92.9717 52.202 93.0005 51.9451 93.0005 51.6025H93.2312C93.2168 51.9879 93.2024 52.5304 93.2168 53.2584C93.2312 53.8008 93.2457 54.2147 93.2745 54.4717H93.0438C93.0294 54.2861 92.9861 54.1577 92.9429 54.0863C92.8996 54.0149 92.7987 53.9578 92.6689 53.9293C92.5391 53.9007 92.3229 53.8864 92.0201 53.9007L89.6842 53.9435V53.7151C89.814 53.658 89.9726 53.6295 90.1168 53.5724Z" fill="#292F36"/>
<path d="M88.4014 65.72C87.9832 65.5915 87.493 65.463 86.9307 65.3488C87.1181 64.8492 87.3921 64.007 87.7814 62.8079C88.2428 61.3805 88.5744 60.2956 88.7763 59.5676L89.007 59.639C88.9349 59.9102 88.906 60.1101 88.906 60.2528C88.9204 60.3955 88.9781 60.4955 89.0935 60.5811C89.2088 60.6668 89.4107 60.7524 89.6846 60.8381L95.2647 62.5796C95.5531 62.6652 95.7549 62.708 95.8991 62.708C96.0433 62.708 96.1586 62.6509 96.2452 62.5367C96.3317 62.4225 96.4182 62.237 96.5191 61.98L96.7498 62.0514C96.4903 62.7794 96.1442 63.85 95.6828 65.2774C95.3368 66.3623 95.0917 67.1474 94.9763 67.6185C94.5005 67.4186 94.0679 67.2473 93.6642 67.1331C93.3758 67.0475 93.1307 66.9761 92.9577 66.9476L93.0442 66.6906C93.5489 66.7905 93.9382 66.8334 94.1977 66.8334C94.4572 66.8334 94.6735 66.7477 94.8465 66.5764C95.0196 66.4194 95.1637 66.1339 95.2935 65.7485L95.5819 64.8207C95.6684 64.5494 95.7117 64.3496 95.6973 64.2211C95.6828 64.0927 95.6396 63.9785 95.5242 63.8928C95.4089 63.8072 95.2214 63.7215 94.933 63.6359L92.28 62.8079L92.0493 63.5502C91.934 63.9214 91.9628 64.2069 92.1502 64.4067C92.3377 64.6065 92.5395 64.7493 92.7702 64.8492C93.0009 64.9491 93.1451 65.0205 93.2028 65.049L93.1163 65.306C92.7558 65.1632 92.4098 65.0348 92.0637 64.9349L91.5302 64.7778C91.1553 64.6636 90.6074 64.5066 89.9153 64.3496L90.0018 64.0927C90.0595 64.1069 90.247 64.1355 90.5642 64.2069C90.8814 64.2639 91.1553 64.2354 91.3716 64.1212C91.5879 64.007 91.7321 63.7929 91.833 63.4931L92.0637 62.7508L89.353 61.9087C89.0646 61.823 88.8628 61.7802 88.7186 61.7802C88.5744 61.7802 88.459 61.8373 88.387 61.9515C88.3004 62.0657 88.2139 62.2512 88.1274 62.5225L87.8679 63.3361C87.7237 63.8072 87.666 64.1783 87.7237 64.4495C87.7669 64.735 87.9111 64.9634 88.1563 65.1632C88.4014 65.3488 88.7763 65.5629 89.2809 65.7913L89.1944 66.0483C89.0214 65.9198 88.7474 65.8342 88.4014 65.72Z" fill="#292F36"/>
<path d="M84.2916 83.2349C84.3493 83.1064 84.3349 82.978 84.2772 82.8495C84.2196 82.721 84.0754 82.564 83.8591 82.3499L79.62 78.3387C79.4037 78.1389 79.2307 78.0104 79.1009 77.9533C78.9711 77.8962 78.8414 77.8962 78.7116 77.9533C78.5818 78.0104 78.4232 78.1389 78.2214 78.3387L78.0483 78.1817C78.3223 77.939 78.6683 77.5822 79.1153 77.1397C79.5767 76.6543 79.9228 76.2832 80.1391 76.0405L80.3121 76.1975C80.1246 76.4117 80.0093 76.583 79.9516 76.6972C79.8939 76.8256 79.9084 76.9541 79.966 77.0826C80.0237 77.211 80.1679 77.3681 80.3842 77.5822L84.6233 81.5933C84.8396 81.7932 85.0126 81.9216 85.1423 81.9787C85.2721 82.0358 85.4019 82.0358 85.5317 81.9787C85.6614 81.9216 85.82 81.7932 86.0219 81.5933L86.1949 81.7503C85.9498 81.9645 85.5893 82.3213 85.1279 82.8067C84.681 83.2634 84.3493 83.6346 84.1186 83.9058L83.9456 83.7488C84.1186 83.5347 84.234 83.3634 84.2916 83.2349Z" fill="#292F36"/>
<path d="M72.2809 91.9422C72.3674 91.8138 72.3818 91.6853 72.353 91.5283C72.3242 91.3713 72.2232 91.1714 72.0646 90.9002L68.4888 84.8906L68.7195 84.7479L76.8805 88.7876L73.7228 83.4774C73.5642 83.2205 73.4344 83.0349 73.3046 82.935C73.1749 82.8351 73.0307 82.7923 72.8721 82.8065C72.7135 82.8208 72.4972 82.9065 72.2232 83.0492L72.0935 82.8494C72.353 82.7352 72.699 82.5353 73.146 82.2784C73.5497 82.0357 73.8525 81.8501 74.0688 81.6931L74.1842 81.893C73.9535 82.0357 73.7949 82.1784 73.7228 82.3069C73.6363 82.4354 73.6218 82.5639 73.6507 82.7209C73.6795 82.8779 73.7804 83.0777 73.939 83.349L76.8516 88.2451C76.9958 88.5021 77.1256 88.6734 77.2409 88.759C77.3563 88.8447 77.4716 88.8875 77.6158 88.8589C77.7456 88.8304 77.9475 88.759 78.1926 88.6305L78.3079 88.8304C78.0772 88.9446 77.76 89.1159 77.3419 89.3585C77.0391 89.5298 76.7795 89.7011 76.5633 89.8439L69.7144 86.4608L72.2809 90.7717C72.4395 91.0287 72.5693 91.2142 72.699 91.3142C72.8144 91.4141 72.9586 91.4569 73.1316 91.4426C73.3046 91.4283 73.5209 91.3427 73.7949 91.2L73.9102 91.3998C73.6507 91.514 73.3046 91.7138 72.8576 91.9708C72.4539 92.2134 72.1511 92.399 71.9348 92.556L71.8195 92.3562C72.0358 92.1992 72.1944 92.0564 72.2809 91.9422Z" fill="#292F36"/>
<path d="M64.3508 93.8123C64.4517 94.2548 64.5815 94.7401 64.7545 95.254C64.1057 95.3682 63.0243 95.5966 61.4959 95.9106C59.9675 96.239 58.9005 96.4816 58.2661 96.6386C58.194 96.0819 58.1219 95.5966 58.021 95.1541C57.9345 94.7687 57.8624 94.4546 57.7759 94.2262L58.0354 94.1691C58.2229 94.7544 58.3959 95.1684 58.5545 95.4396C58.7131 95.7108 58.915 95.8821 59.1745 95.9677C59.434 96.0534 59.8089 96.0391 60.2847 95.9392L60.9047 95.8107L59.4917 89.3158C59.4196 89.0018 59.3475 88.7734 59.2466 88.6449C59.1457 88.5164 59.0303 88.4308 58.8573 88.4165C58.6843 88.388 58.4247 88.4165 58.0787 88.4736L58.0354 88.2452C58.4391 88.1881 59.0159 88.0739 59.7368 87.9169C60.501 87.7456 61.0778 87.6171 61.4382 87.5172L61.4815 87.7456C61.1354 87.8313 60.9047 87.9169 60.7606 88.0025C60.6164 88.0882 60.5299 88.2167 60.501 88.3737C60.4722 88.5307 60.4866 88.7734 60.5587 89.0874L61.9717 95.5823L62.5917 95.4539C63.0676 95.3539 63.4136 95.2112 63.6155 95.0256C63.8173 94.84 63.9327 94.5974 63.9615 94.2976C63.9903 93.9978 63.9759 93.5411 63.9038 92.9415L64.1634 92.8844C64.2066 93.1128 64.2643 93.4269 64.3508 93.8123Z" fill="#292F36"/>
<path d="M45.217 89.8011C45.2602 89.3586 45.2746 88.859 45.2746 88.3022C45.8081 88.3736 46.7021 88.4593 47.9709 88.5735C49.4705 88.7019 50.6096 88.8019 51.3882 88.8447L51.3738 89.0731C51.0854 89.0588 50.8835 89.0731 50.7538 89.1159C50.624 89.1587 50.5231 89.2301 50.4654 89.3586C50.4077 89.487 50.3645 89.7012 50.3356 89.9866L49.8165 95.7678C49.7877 96.0533 49.8021 96.2674 49.831 96.4102C49.8598 96.5529 49.9463 96.6528 50.0761 96.7099C50.2058 96.767 50.4077 96.8241 50.6817 96.8527L50.6672 97.0811C49.9031 96.9954 48.764 96.8812 47.2644 96.7528C46.1109 96.6528 45.2891 96.5958 44.7988 96.5672C44.8998 96.0676 44.9719 95.6108 45.0007 95.1968C45.0295 94.8971 45.0439 94.6544 45.0295 94.4688L45.3035 94.4974C45.3179 95.0113 45.3467 95.3824 45.4188 95.6394C45.4765 95.8963 45.6063 96.0819 45.8081 96.2103C45.9956 96.3388 46.3128 96.4245 46.7165 96.453L47.697 96.5386C47.9854 96.5672 48.1872 96.5529 48.317 96.5244C48.4468 96.4958 48.5477 96.4102 48.6054 96.2817C48.663 96.1532 48.7063 95.9391 48.7351 95.6536L48.9803 92.9129L48.2016 92.8415C47.8123 92.813 47.5384 92.8986 47.3798 93.127C47.2356 93.3554 47.1202 93.5838 47.077 93.8265C47.0193 94.0692 46.9905 94.2262 46.9761 94.2975L46.7021 94.269C46.7598 93.8836 46.803 93.5267 46.8463 93.1699L46.8895 92.6132C46.9184 92.2135 46.9472 91.671 46.9761 90.9573L47.25 90.9859C47.25 91.043 47.2644 91.2285 47.2644 91.5568C47.2788 91.8852 47.3509 92.1421 47.524 92.3134C47.6826 92.499 47.9277 92.5989 48.2449 92.6274L49.0235 92.6988L49.2686 89.901C49.2975 89.6155 49.2831 89.4014 49.2542 89.2586C49.2254 89.1302 49.1389 89.0302 49.0091 88.9732C48.8793 88.9161 48.6775 88.8732 48.4035 88.8447L47.5384 88.7733C47.0482 88.7305 46.6733 88.759 46.3993 88.8732C46.1398 88.9731 45.9379 89.173 45.7937 89.4442C45.6495 89.7154 45.5342 90.1294 45.4188 90.6718L45.1449 90.6433C45.1449 90.4292 45.1737 90.1437 45.217 89.8011Z" fill="#292F36"/>
<path d="M33.8697 84.5053C34.086 84.4625 34.3311 84.5053 34.5906 84.6195C34.8934 84.748 35.0953 84.9335 35.2106 85.1762C35.326 85.4331 35.3404 85.79 35.2683 86.2611L35.052 87.4316C34.9799 87.8455 34.9367 88.1596 34.9222 88.4023C34.9078 88.6306 34.9655 88.8448 35.0664 89.0303C35.1674 89.2159 35.3548 89.3586 35.6288 89.4728L36.6669 89.9011L37.7195 87.4173C37.8348 87.1461 37.8925 86.9462 37.9069 86.8035C37.9213 86.6608 37.8637 86.5466 37.7627 86.4466C37.6618 86.3467 37.4888 86.2468 37.2292 86.1326L37.3157 85.9185C37.6474 86.0755 38.0944 86.2753 38.6855 86.518C39.3055 86.775 39.7813 86.9605 40.0986 87.0604L40.012 87.2746C39.7381 87.1746 39.5362 87.1318 39.4065 87.1175C39.2623 87.1175 39.1469 87.1604 39.0604 87.2746C38.9595 87.3745 38.8585 87.5601 38.7432 87.8313L36.4795 93.1842C36.3641 93.4554 36.3064 93.6553 36.292 93.798C36.2776 93.9408 36.3353 94.055 36.4362 94.1549C36.5371 94.2548 36.7102 94.3547 36.9697 94.4832L36.8832 94.6973C36.5804 94.5546 36.1478 94.3547 35.5711 94.1121C35.2827 93.9979 34.9799 93.8694 34.6339 93.7267C34.2878 93.5839 34.0571 93.4983 33.9273 93.4412C33.365 93.1985 32.918 92.9273 32.5864 92.599C32.2548 92.2707 32.0673 91.9281 31.9808 91.5569C31.8943 91.1858 31.9376 90.8289 32.0962 90.4721C32.2115 90.1866 32.399 89.9296 32.6585 89.7012C32.918 89.4728 33.2497 89.3015 33.6534 89.2159C34.0571 89.1303 34.5473 89.1445 35.0808 89.273L34.9511 89.2016C34.6483 89.0161 34.4176 88.8305 34.2734 88.6306C34.1292 88.4451 34.0283 88.231 33.9994 88.0026C33.9562 87.7742 33.9706 87.4887 34.0283 87.1461L34.2301 85.9328C34.2734 85.6901 34.3022 85.5045 34.3022 85.3618C34.3022 85.219 34.2878 85.1048 34.2446 85.0192C34.2013 84.9335 34.1292 84.8622 34.0283 84.8336C33.9129 84.7765 33.7976 84.7765 33.6966 84.8051C33.5957 84.8336 33.4515 84.905 33.2641 85.0049L33.1487 84.8193C33.4083 84.6623 33.6534 84.5481 33.8697 84.5053ZM34.5906 89.587C34.2446 89.6299 33.9706 89.7583 33.7543 89.9724C33.538 90.1866 33.3506 90.4721 33.192 90.8432C32.9469 91.4285 32.8892 91.9423 33.0478 92.3563C33.2064 92.7703 33.5957 93.1128 34.2446 93.3841C34.4753 93.484 34.6483 93.5268 34.7925 93.5125C34.9222 93.5125 35.0376 93.4554 35.1385 93.3412C35.2394 93.227 35.3404 93.0415 35.4413 92.7845L36.566 90.1295L35.8306 89.8297C35.3548 89.6299 34.9367 89.5442 34.5906 89.587Z" fill="#292F36"/>
<path d="M22.6228 86.4466C22.7525 86.4894 22.8823 86.4609 22.9976 86.3895C23.113 86.3181 23.2716 86.1611 23.459 85.9327L27.0781 81.3649C27.2656 81.1365 27.3809 80.9509 27.4242 80.8225C27.4675 80.694 27.453 80.5655 27.3809 80.4513C27.3088 80.3371 27.1647 80.1801 26.9484 79.9945L27.0926 79.809C27.3665 80.0516 27.7414 80.3657 28.2461 80.7511C28.7796 81.165 29.1833 81.4648 29.4572 81.6504L29.313 81.8359C29.0824 81.6647 28.8949 81.5647 28.7651 81.5362C28.6354 81.4934 28.5056 81.5076 28.3903 81.5933C28.2749 81.6646 28.1163 81.8217 27.9289 82.0501L24.3098 86.6179C24.1223 86.8463 24.007 87.0319 23.9637 87.1603C23.9204 87.2888 23.9349 87.4173 24.007 87.5315C24.0791 87.6457 24.2232 87.8027 24.4395 87.9883L24.2953 88.1738C24.0502 87.9597 23.6609 87.6457 23.1274 87.2174C22.6228 86.832 22.219 86.5323 21.9307 86.3324L22.0749 86.1469C22.32 86.3039 22.493 86.4038 22.6228 86.4466Z" fill="#292F36"/>
<path d="M13.3083 76.2832C13.2506 75.6409 13.3948 74.9985 13.7264 74.3847C14.0725 73.7566 14.5916 73.1999 15.3125 72.6717C16.019 72.1721 16.7255 71.8438 17.4609 71.7154C18.1962 71.5869 18.8739 71.6297 19.5084 71.8724C20.1428 72.115 20.6763 72.529 21.0944 73.1143C21.5414 73.7138 21.7865 74.3419 21.8442 74.9842C21.9019 75.6266 21.7577 76.2689 21.426 76.8827C21.08 77.5108 20.5609 78.0675 19.84 78.5957C19.1335 79.0953 18.4269 79.4236 17.6916 79.5521C16.9707 79.6805 16.2786 79.6377 15.6441 79.3951C15.0097 79.1524 14.4762 78.7384 14.0581 78.1674C13.6111 77.5536 13.366 76.9256 13.3083 76.2832ZM15.4711 78.8241C15.9758 78.924 16.5525 78.8812 17.1869 78.6813C17.8214 78.4815 18.4558 78.1532 19.119 77.6678C19.7823 77.1968 20.3014 76.6829 20.6618 76.1405C21.0367 75.598 21.2386 75.0556 21.2674 74.5417C21.3107 74.0278 21.1809 73.571 20.907 73.1856C20.6042 72.7859 20.2149 72.529 19.6958 72.4291C19.1911 72.3292 18.6144 72.372 17.98 72.5718C17.3455 72.7717 16.7111 73.1 16.0479 73.571C15.3846 74.0421 14.8655 74.556 14.5051 75.1127C14.1302 75.6551 13.9283 76.1833 13.885 76.7114C13.8418 77.2253 13.9716 77.6821 14.2455 78.0675C14.5483 78.4672 14.952 78.7242 15.4711 78.8241Z" fill="#292F36"/>
<path d="M14.4184 59.0966C14.5915 59.2251 14.7212 59.4392 14.8078 59.7247C14.9087 60.0245 14.8943 60.31 14.7789 60.5526C14.6636 60.8096 14.3896 61.0522 13.9715 61.2949L12.9189 61.8801C12.5584 62.0943 12.2845 62.2656 12.097 62.4083C11.9096 62.5511 11.7798 62.7224 11.7077 62.9222C11.6356 63.122 11.6356 63.3504 11.7221 63.6359L12.0538 64.7065L14.6491 63.9071C14.9375 63.8215 15.125 63.7358 15.2403 63.6502C15.3557 63.5645 15.4133 63.4504 15.4278 63.3219C15.4422 63.1934 15.3989 62.9793 15.3268 62.7081L15.5575 62.6367C15.644 62.9793 15.7738 63.4646 15.9757 64.0642C16.1775 64.7065 16.3361 65.1776 16.4515 65.4773L16.2208 65.5487C16.1199 65.2775 16.0333 65.0919 15.9468 64.992C15.8603 64.8921 15.745 64.8207 15.6008 64.8207C15.4566 64.8207 15.2403 64.8493 14.9664 64.9492L9.3719 66.6621C9.08352 66.7478 8.89608 66.8334 8.78073 66.9191C8.66538 67.0047 8.6077 67.1189 8.59329 67.2474C8.57887 67.3901 8.62212 67.59 8.69422 67.8612L8.46352 67.9326C8.39142 67.6185 8.26165 67.1617 8.07421 66.5622C7.9877 66.2767 7.87235 65.9484 7.757 65.6058C7.64165 65.2632 7.55514 65.0205 7.51188 64.8921C7.32444 64.3068 7.26676 63.7929 7.31002 63.3362C7.35328 62.8794 7.49746 62.5082 7.72816 62.2085C7.95886 61.9087 8.26165 61.7089 8.63654 61.5947C8.92492 61.509 9.24213 61.4805 9.58818 61.5233C9.93423 61.5661 10.2659 61.7089 10.6119 61.9658C10.958 62.2227 11.2463 62.5939 11.4914 63.0935L11.477 62.9507C11.4338 62.5939 11.4194 62.3084 11.477 62.0657C11.5347 61.8231 11.6356 61.6232 11.7798 61.4519C11.9384 61.2806 12.1691 61.0951 12.4719 60.9238L13.5389 60.2957C13.7552 60.1815 13.9282 60.0673 14.0291 59.9816C14.1301 59.896 14.2166 59.8103 14.2598 59.7247C14.3031 59.639 14.3031 59.5391 14.2743 59.4392C14.231 59.3107 14.1733 59.2251 14.0868 59.168C14.0003 59.1109 13.8561 59.0395 13.6543 58.9681L13.7264 58.754C14.0147 58.854 14.2598 58.9681 14.4184 59.0966ZM10.9724 62.9222C10.7273 62.6938 10.4389 62.5653 10.1361 62.5368C9.8333 62.5082 9.48725 62.5511 9.09794 62.6795C8.47794 62.8651 8.05979 63.1649 7.82909 63.5503C7.59839 63.9357 7.59839 64.4638 7.80026 65.1062C7.87235 65.3346 7.95886 65.5059 8.04537 65.6058C8.13189 65.7057 8.26165 65.7628 8.40584 65.7628C8.55003 65.7628 8.76631 65.72 9.02585 65.6486L11.7942 64.7922L11.5635 64.0356C11.4194 63.5217 11.2175 63.1506 10.9724 62.9222Z" fill="#292F36"/>
<path d="M13.3085 45.5501C13.8564 45.3074 14.188 44.8506 14.3322 44.1655C14.3754 43.9085 14.3754 43.6516 14.3033 43.4089C14.2313 43.1662 14.1015 42.9521 13.8996 42.7666C13.6978 42.581 13.4238 42.4525 13.0633 42.3954C12.7605 42.3383 12.4866 42.3669 12.2271 42.4668C11.9675 42.5667 11.708 42.7237 11.4629 42.9379C11.2177 43.152 10.9294 43.4375 10.6122 43.7943C10.2517 44.194 9.93447 44.5223 9.66052 44.7507C9.38656 44.9934 9.08377 45.1647 8.75214 45.2932C8.42051 45.4216 8.04562 45.4359 7.62748 45.3645C7.19492 45.2789 6.83445 45.1219 6.57491 44.8649C6.31537 44.608 6.12793 44.3082 6.04142 43.9513C5.95491 43.5945 5.95491 43.2233 6.027 42.8237C6.07026 42.581 6.12793 42.3954 6.20003 42.2241C6.27212 42.0528 6.34421 41.9244 6.43072 41.8244C6.51724 41.7245 6.60375 41.6103 6.7191 41.4961C6.86329 41.3391 6.93538 41.2249 6.96422 41.1393C6.97864 41.0679 6.9498 41.0108 6.8777 40.9537C6.80561 40.8966 6.67584 40.8538 6.50282 40.7967L6.54607 40.5397C6.99305 40.6539 7.77167 40.8252 8.91074 41.0393L8.86749 41.2963C8.46376 41.2535 8.08888 41.2677 7.71399 41.3534C7.35352 41.4248 7.03631 41.5818 6.77677 41.8244C6.51724 42.0528 6.34421 42.3811 6.27212 42.7808C6.21444 43.0521 6.22886 43.2947 6.30096 43.5374C6.37305 43.7801 6.50282 43.9656 6.67584 44.1226C6.86329 44.2797 7.07957 44.3796 7.3391 44.4367C7.75725 44.5081 8.11772 44.451 8.42051 44.2511C8.7233 44.0513 9.01168 43.7943 9.28563 43.4946C9.55959 43.1948 9.73261 42.995 9.83354 42.895C10.2373 42.4668 10.5689 42.1385 10.8429 41.8958C11.1168 41.6531 11.4196 41.4819 11.7512 41.3677C12.0829 41.2535 12.4433 41.2392 12.8326 41.3106C13.3085 41.3962 13.6978 41.5818 13.9861 41.853C14.2745 42.1385 14.462 42.4668 14.5629 42.8665C14.6638 43.2662 14.6638 43.6944 14.5773 44.1512C14.5052 44.5223 14.4187 44.8078 14.2889 45.0362C14.1736 45.2646 14.015 45.4644 13.8419 45.65C13.6978 45.807 13.6257 45.9212 13.5968 46.0069C13.5824 46.0783 13.6112 46.1354 13.6833 46.1925C13.7554 46.2495 13.8852 46.3066 14.0582 46.3495L14.015 46.6064C13.5968 46.4922 12.674 46.3066 11.2466 46.0497L11.2898 45.7928C12.0973 45.8641 12.7605 45.7928 13.3085 45.5501Z" fill="#292F36"/>
<path d="M10.4535 33.5165C10.0498 33.3024 9.58841 33.1026 9.06934 32.9027C9.38655 32.346 9.92004 31.3754 10.641 29.9907C11.3619 28.6204 11.8666 27.6497 12.1405 27.0645C12.6163 27.3642 13.0489 27.6212 13.4382 27.821C13.7843 28.0066 14.0871 28.135 14.3178 28.235L14.188 28.4776C13.6112 28.2492 13.1787 28.1065 12.8759 28.0637C12.5731 28.0066 12.2991 28.0637 12.0684 28.2064C11.8377 28.3492 11.607 28.6347 11.3908 29.0629L11.1024 29.6339L17.0573 32.7029C17.3457 32.8599 17.5764 32.9313 17.735 32.9456C17.8936 32.9598 18.0378 32.917 18.1676 32.8028C18.2973 32.6886 18.4415 32.4745 18.6145 32.1747L18.8308 32.2889C18.6145 32.6458 18.3406 33.1454 17.9945 33.802C17.6341 34.4872 17.3745 35.0154 17.2159 35.3437L16.9996 35.2295C17.1438 34.9154 17.2448 34.6728 17.2592 34.5158C17.288 34.3445 17.2448 34.2017 17.1294 34.0733C17.0141 33.9448 16.8266 33.8163 16.5382 33.6593L10.5833 30.576L10.2805 31.1327C10.0498 31.5609 9.94888 31.9035 9.9633 32.1747C9.97772 32.446 10.0931 32.6886 10.3093 32.9027C10.5256 33.1169 10.8861 33.4023 11.4052 33.7307L11.2754 33.9733C11.088 33.8591 10.7996 33.7021 10.4535 33.5165Z" fill="#292F36"/>
<path d="M20.633 17.1153C20.8781 16.8726 21.08 16.6442 21.2241 16.4729L21.3972 16.6442C21.3107 16.7727 21.2674 16.9582 21.2818 17.1724C21.2962 17.3865 21.3539 17.6862 21.4693 18.0431L22.7814 21.9115L24.3098 23.4103C24.526 23.6102 24.6846 23.7529 24.8144 23.81C24.9442 23.8671 25.0739 23.8671 25.2037 23.81C25.3335 23.7529 25.4921 23.6244 25.7084 23.4389L25.8814 23.6102C25.6074 23.8528 25.247 24.1954 24.8 24.6379C24.3242 25.109 23.9781 25.4801 23.7618 25.7228L23.5888 25.5515C23.7763 25.3374 23.906 25.1804 23.9637 25.0519C24.0214 24.9234 24.0214 24.795 23.9493 24.6665C23.8916 24.538 23.7474 24.3667 23.5456 24.1669L22.2767 22.925L17.4609 21.5261C17.1725 21.4404 16.9562 21.4119 16.812 21.4262C16.6678 21.4404 16.5669 21.4833 16.4948 21.5546L16.3218 21.3833C16.5525 21.1835 16.812 20.9551 17.0716 20.6839C17.605 20.1415 17.9943 19.756 18.2106 19.4991L18.3837 19.6704C17.9943 20.0558 17.9078 20.3556 18.1241 20.5697C18.2106 20.6553 18.326 20.7124 18.499 20.7695L22.5507 22.0114L21.4837 18.8567C21.3251 18.4 21.1665 18.0859 20.9934 17.9289C20.8348 17.7719 20.6618 17.7291 20.4744 17.7862C20.2869 17.8433 20.0706 17.986 19.8111 18.2287L19.6381 18.0574C19.9841 17.7433 20.3013 17.4293 20.633 17.1153Z" fill="#292F36"/>
<path d="M29.3567 11.3626C29.2702 11.4625 29.227 11.591 29.2558 11.7337C29.2847 11.8765 29.3567 12.0763 29.5009 12.3333L32.2837 17.4436C32.4279 17.7005 32.5433 17.8718 32.6586 17.9717C32.7596 18.0716 32.8893 18.1002 33.0191 18.0859C33.1489 18.0716 33.3507 17.986 33.5958 17.8575L34.36 17.4436C34.7926 17.2152 35.0954 16.9725 35.254 16.7298C35.4126 16.4872 35.4703 16.2159 35.427 15.8876C35.3838 15.5593 35.254 15.1454 35.0233 14.6029L35.2684 14.4745C35.3694 14.7028 35.5135 14.9883 35.701 15.3309C35.9173 15.7163 36.1768 16.1446 36.494 16.6156C36.0182 16.844 35.2107 17.258 34.1005 17.8575C32.774 18.5712 31.7647 19.1137 31.1014 19.4991L30.9861 19.2992C31.2312 19.1565 31.4042 19.028 31.4907 18.9281C31.5772 18.8282 31.6205 18.6997 31.5916 18.557C31.5628 18.4142 31.4907 18.2144 31.3465 17.9574L28.5349 12.8472C28.3907 12.5902 28.2753 12.4189 28.16 12.319C28.0591 12.2191 27.9293 12.1905 27.7995 12.2048C27.6553 12.2191 27.4679 12.2905 27.2084 12.4189L27.1074 12.2048C27.4102 12.0763 27.8572 11.8479 28.4484 11.5196C29.0107 11.2199 29.4433 10.9772 29.746 10.7916L29.8614 10.9915C29.6163 11.1342 29.4577 11.2627 29.3567 11.3626Z" fill="#292F36"/>
<path d="M46.9186 12.2761C47.0051 12.7043 47.1349 13.1897 47.2935 13.7321C46.76 13.8178 45.8805 13.9748 44.6405 14.2174C43.1553 14.5029 42.0451 14.7313 41.2809 14.9026L41.2377 14.6742C41.5116 14.6029 41.7135 14.5458 41.8288 14.4601C41.9442 14.3887 42.0163 14.2745 42.0307 14.1461C42.0451 14.0033 42.0307 13.7892 41.973 13.5037L40.8484 7.80817C40.7907 7.52268 40.733 7.32284 40.6465 7.19437C40.56 7.0659 40.4735 6.99452 40.3293 6.98025C40.1995 6.9517 39.9832 6.96597 39.7093 7.0088L39.666 6.78041C40.4302 6.65194 41.5549 6.45209 43.0256 6.1666C44.1647 5.93821 44.9721 5.78119 45.4335 5.66699C45.4768 6.18088 45.5489 6.63766 45.6209 7.03735C45.6786 7.33711 45.7363 7.56551 45.794 7.7368L45.5344 7.7939C45.3758 7.30856 45.2316 6.9517 45.1019 6.72331C44.9721 6.49492 44.7847 6.35217 44.5684 6.2808C44.3377 6.20942 44.0349 6.20942 43.6167 6.29507L42.6507 6.48064C42.3767 6.53774 42.1749 6.59484 42.0595 6.66621C41.9442 6.73758 41.8721 6.8375 41.8432 6.98025C41.8288 7.12299 41.8432 7.33711 41.9009 7.6226L42.4344 10.3348L43.1986 10.1777C43.5879 10.1064 43.8186 9.93508 43.9051 9.67814C43.9916 9.4212 44.0205 9.17853 44.0061 8.93586C43.9916 8.69319 43.9772 8.53617 43.9772 8.4648L44.2368 8.4077C44.28 8.79312 44.3377 9.14998 44.4098 9.49257L44.5251 10.035C44.5972 10.4204 44.727 10.9628 44.9144 11.648L44.6549 11.7051C44.6405 11.648 44.5828 11.4767 44.4819 11.1627C44.3809 10.8486 44.2368 10.6345 44.0205 10.5061C43.8042 10.3776 43.5591 10.349 43.2419 10.4061L42.4777 10.5489L43.0256 13.3039C43.0833 13.5894 43.1409 13.7892 43.213 13.9177C43.2851 14.0319 43.386 14.1032 43.5302 14.1318C43.66 14.1461 43.8763 14.1318 44.1502 14.0747L45.0009 13.9034C45.4768 13.8035 45.8372 13.675 46.0679 13.5037C46.2986 13.3324 46.4284 13.0898 46.4861 12.79C46.5437 12.4902 46.5437 12.062 46.5005 11.5053L46.76 11.4482C46.8033 11.6623 46.8465 11.9335 46.9186 12.2761Z" fill="#292F36"/>
<path d="M37.2002 66.7906C36.5369 65.9056 35.9602 64.9349 35.4555 63.8643C34.9508 62.7937 34.5471 61.7088 34.2443 60.5954C33.5811 55.6993 33.5666 50.9458 34.1867 46.3352C34.8067 41.7245 35.816 37.1852 37.2002 32.703C37.4309 32.2034 37.9355 31.9607 38.7141 31.9607C39.4927 31.9607 40.2569 32.132 41.0355 32.4746C41.8142 32.8172 42.4486 33.274 42.9532 33.8449C43.4579 34.4159 43.5732 35.0155 43.2993 35.6293C42.8667 36.5428 42.4486 37.7847 42.0304 39.3264C41.6123 40.8823 41.1942 42.5952 40.8193 44.4652C40.43 46.3352 40.0983 48.3051 39.81 50.3463C39.5216 52.3876 39.3053 54.3575 39.1755 56.2274C39.0458 58.0974 39.0169 59.7961 39.089 61.3092C39.1611 62.8223 39.3918 64.0213 39.7811 64.8921C41.5979 62.4797 43.256 59.9816 44.77 57.3979C46.284 54.8142 47.697 52.202 49.0235 49.5327C50.35 46.8776 51.6189 44.194 52.8156 41.4675C54.0124 38.7554 55.1947 36.0718 56.3482 33.431C56.925 32.0892 57.5017 30.676 58.0641 29.1914C58.6264 27.6926 59.3617 26.4222 60.299 25.3516C60.6883 25.009 60.9911 24.8948 61.1929 25.009C61.4092 25.1232 61.5534 25.3373 61.6255 25.6656C61.6976 25.994 61.7408 26.3365 61.7408 26.6934C61.7408 27.0503 61.7408 27.3358 61.7408 27.5213C61.4669 29.2771 61.2362 31.0186 61.0487 32.7458C60.8613 34.473 60.4431 36.1289 59.8376 37.7419C58.8283 40.2685 57.8045 42.7665 56.7375 45.2646C55.6705 47.7483 54.5315 50.2036 53.3203 52.616C52.1091 55.0284 50.7826 57.3694 49.384 59.639C47.971 61.923 46.4426 64.0927 44.77 66.1482C43.4579 67.7898 42.1458 68.6605 40.8625 68.7605C39.5216 68.8747 38.3248 68.2038 37.2002 66.7906Z" fill="#292F36" stroke="white" stroke-miterlimit="10"/>
<path d="M61.0778 60.3099C60.2992 59.2393 59.535 58.1544 58.7852 57.041C58.0354 55.9276 57.6606 54.7143 57.6606 53.3725C57.6606 51.8879 58.0931 50.4747 58.9582 49.1472C59.8234 47.834 60.8182 46.7634 61.9429 45.964C62.4043 45.6642 62.8801 45.4073 63.3559 45.2217C63.8318 45.0361 64.3508 45.0504 64.8987 45.2788C65.1294 45.393 65.3746 45.4787 65.6197 45.5358C65.8648 45.5929 66.0955 45.6642 66.2829 45.7356C66.4704 45.807 66.6867 45.9212 66.9174 46.0782C67.1481 46.2352 67.2634 46.4351 67.2634 46.7063C67.2634 47.7769 67.2923 48.6476 67.3499 49.3185C67.4076 49.9894 67.4941 50.5604 67.6095 51.0457C67.7248 51.5311 67.8402 51.945 67.9555 52.3019C68.0709 52.673 68.1862 53.0584 68.3016 53.4724C68.3737 53.8578 68.3592 54.1861 68.2439 54.4431C68.1285 54.7143 67.8402 54.7428 67.3788 54.5573C66.5281 54.2575 65.8936 53.6437 65.4899 52.7158C65.0862 51.788 64.7834 50.9601 64.596 50.1893C64.5527 50.0322 64.4662 49.7753 64.3076 49.3899C64.149 49.0045 64.0625 48.7333 64.0192 48.5905C63.7164 48.5191 63.3415 48.6191 62.9234 48.9045C62.5052 49.19 62.1159 49.5897 61.7987 50.0751C61.4671 50.5747 61.2508 51.1456 61.1643 51.8023C61.0634 52.4589 61.1931 53.1013 61.5392 53.7579C61.6978 53.9863 61.9141 54.2718 62.2024 54.5858C62.4908 54.9141 62.7792 55.2424 63.0676 55.585C63.3559 55.9276 63.6443 56.2702 63.9327 56.5842C64.2211 56.8983 64.4662 57.1695 64.6536 57.3551C64.8843 57.5835 65.0429 57.7119 65.115 57.7262C65.1871 57.7405 65.389 57.6977 65.6918 57.5835C66.0811 57.3979 66.6723 57.141 67.4653 56.8412C68.2583 56.5414 69.0946 56.2274 69.9597 55.9276C70.8248 55.6279 71.6611 55.3709 72.4542 55.1568C73.2472 54.9427 73.8528 54.8427 74.2853 54.8427C74.5593 54.8427 74.7467 54.9427 74.8621 55.1282C74.9774 55.2424 74.963 55.3995 74.8044 55.585C74.6458 55.7706 74.4439 55.9704 74.1988 56.156C73.9537 56.3416 73.6797 56.5129 73.4202 56.6699C73.1463 56.8269 72.9732 56.9126 72.9011 56.9554C72.2379 57.3408 71.416 57.769 70.4067 58.2544C69.3974 58.7254 68.5323 59.1965 67.7969 59.6533C67.7248 59.7246 67.5806 59.8103 67.3644 59.8817C67.1481 59.953 66.9895 60.0387 66.8741 60.1101C67.3355 61.1378 67.6671 62.0371 67.8546 62.7794C68.042 63.5217 68.1141 64.2354 68.0564 64.9348C67.9988 65.62 67.8546 66.3195 67.6239 67.0332C67.3932 67.7469 67.076 68.5606 66.7011 69.4741C66.1532 70.3592 65.6053 71.2014 65.0429 72.0007C64.4806 72.8001 63.8606 73.5281 63.1541 74.1847C62.462 74.8414 61.6978 75.3553 60.8903 75.7264C60.0829 76.1118 59.1889 76.2974 58.2229 76.2974C57.675 76.2974 57.1559 76.226 56.6512 76.0975C56.1466 75.9691 55.7284 75.6836 55.3824 75.2696C54.4884 74.3132 53.9982 73.2712 53.8828 72.1435C53.7675 71.0158 53.8684 69.9024 54.1712 68.789C54.4019 68.1038 54.6903 67.4757 55.0363 66.8905C55.887 65.4345 56.8243 64.2068 57.848 63.1934C58.8861 62.1941 59.9531 61.2235 61.0778 60.3099ZM63.0532 62.8936C62.6206 63.3218 62.0438 63.9214 61.3085 64.7065C60.5731 65.4916 59.8955 66.348 59.2466 67.2616C58.6122 68.1752 58.0931 69.0887 57.6894 69.988C57.2857 70.8873 57.1847 71.6582 57.3722 72.3148C58.1508 71.9722 58.9438 71.4012 59.7513 70.6161C60.5587 69.831 61.2796 68.9745 61.8997 68.0324C62.5197 67.0903 62.9522 66.1625 63.1973 65.2489C63.4425 64.321 63.3992 63.5359 63.0532 62.8936Z" fill="#292F36" stroke="white" stroke-miterlimit="10"/>
<path d="M51.6765 83.5488C33.6387 83.5488 18.9604 69.0174 18.9604 51.1599C18.9604 33.3025 33.6387 18.771 51.6765 18.771C69.7144 18.771 84.3926 33.3025 84.3926 51.1599C84.3926 69.0174 69.7144 83.5488 51.6765 83.5488ZM51.6765 20.1984C34.4317 20.1984 20.4023 34.0876 20.4023 51.1599C20.4023 68.2323 34.4317 82.1214 51.6765 82.1214C68.9213 82.1214 82.9507 68.2323 82.9507 51.1599C82.9507 34.0876 68.9213 20.1984 51.6765 20.1984Z" fill="#292F36"/>
</g>
</svg>
