<svg width="43" height="40" viewBox="0 0 43 40" fill="none" xmlns="http://www.w3.org/2000/svg">
<path d="M16.6667 3.28625C18.2653 -1.09535 24.4622 -1.09535 26.0609 3.28625L28.0227 8.66325C28.7427 10.6365 30.6193 11.9494 32.7199 11.9494H37.7185C42.7011 11.9494 44.6179 18.4407 40.4346 21.1474L37.426 23.094C35.4674 24.3612 34.6454 26.8143 35.445 29.0057L36.8219 32.7797C38.4662 37.2861 33.4362 41.2973 29.4087 38.6914L24.0799 35.2436C22.427 34.1742 20.3005 34.1742 18.6477 35.2436L13.3188 38.6914C9.29129 41.2973 4.26139 37.2861 5.90562 32.7797L7.28258 29.0057C8.08215 26.8143 7.26011 24.3612 5.30157 23.094L2.29299 21.1474C-1.89038 18.4407 0.0264578 11.9494 5.00909 11.9494H10.0077C12.1082 11.9494 13.9848 10.6366 14.7048 8.66325L16.6667 3.28625Z" fill="#FFC226"/>
</svg>
