<svg width="51" height="51" viewBox="0 0 51 51" fill="none" xmlns="http://www.w3.org/2000/svg">
<mask id="mask0_119_2390" style="mask-type:alpha" maskUnits="userSpaceOnUse" x="7" y="6" width="37" height="36">
<path d="M22.6468 8.78115C23.5449 6.01722 27.4551 6.01722 28.3532 8.78115L30.5516 15.5471C30.9532 16.7832 32.1051 17.6201 33.4047 17.6201L40.5189 17.6201C43.4251 17.6201 44.6334 21.3389 42.2822 23.0471L36.5268 27.2287C35.4753 27.9926 35.0353 29.3467 35.437 30.5828L37.6354 37.3488C38.5334 40.1127 35.37 42.4111 33.0188 40.7029L27.2634 36.5213C26.2119 35.7574 24.7881 35.7574 23.7366 36.5213L17.9812 40.7029C15.63 42.4111 12.4666 40.1127 13.3646 37.3488L15.563 30.5828C15.9647 29.3467 15.5247 27.9926 14.4732 27.2287L8.71775 23.0471C6.36661 21.3389 7.57494 17.6201 10.4811 17.6201L17.5953 17.6201C18.8949 17.6201 20.0468 16.7832 20.4484 15.5471L22.6468 8.78115Z" fill="#FFC226"/>
</mask>
<g mask="url(#mask0_119_2390)">
<rect x="5" y="1" width="20" height="46" fill="#FFC226"/>
</g>
</svg>
