<svg width="72" height="72" viewBox="0 0 72 72" fill="none" xmlns="http://www.w3.org/2000/svg">
<path d="M0 22.8572C0 10.2335 10.2335 0 22.8571 0H48.9078C61.5314 0 71.7649 10.2335 71.7649 22.8571V48.9078C71.7649 61.5314 61.5314 71.7649 48.9078 71.7649H22.8572C10.2335 71.7649 0 61.5314 0 48.9078V22.8572Z" fill="#F6F6F6"/>
<path d="M16.1104 25.2532C16.1104 20.2037 20.2037 16.1104 25.2532 16.1104H46.5114C51.5609 16.1104 55.6543 20.2037 55.6543 25.2532V46.5114C55.6543 51.5609 51.5609 55.6543 46.5114 55.6543H25.2532C20.2037 55.6543 16.1104 51.5609 16.1104 46.5114V25.2532Z" fill="#470137"/>
<path d="M35.9674 42.7715H32.8067L29.771 37.834L26.7353 42.7715H23.771L28.1014 36.0393L24.0478 29.7179H27.1014L29.9139 34.4143L32.6728 29.7179H35.6549L31.5567 36.1911L35.9674 42.7715ZM40.5567 42.9501C39.4436 42.9501 38.5359 42.5155 37.8335 41.6465C37.1371 40.7715 36.7889 39.4887 36.7889 37.7983C36.7889 36.0899 37.143 34.7983 37.8514 33.9233C38.5597 33.0423 39.4853 32.6018 40.6281 32.6018C41.1043 32.6018 41.524 32.6673 41.8871 32.7983C42.2502 32.9292 42.5627 33.1048 42.8246 33.3251C43.0924 33.5453 43.3186 33.7923 43.5031 34.0661H43.5924C43.5567 33.8757 43.5121 33.5959 43.4585 33.2268C43.4109 32.8518 43.3871 32.4679 43.3871 32.0751V28.8786H46.1192V42.7715H44.0299L43.5031 41.4768H43.3871C43.2144 41.7507 42.9972 42.0007 42.7353 42.2268C42.4793 42.4471 42.1728 42.6227 41.8156 42.7536C41.4585 42.8846 41.0389 42.9501 40.5567 42.9501ZM41.5121 40.7804C42.2561 40.7804 42.7799 40.5602 43.0835 40.1197C43.393 39.6733 43.5567 39.0036 43.5746 38.1108V37.8161C43.5746 36.8459 43.4258 36.1048 43.1281 35.5929C42.8305 35.0751 42.2769 34.8161 41.4674 34.8161C40.8662 34.8161 40.396 35.0751 40.0567 35.5929C39.7174 36.1108 39.5478 36.8578 39.5478 37.834C39.5478 38.8102 39.7174 39.5453 40.0567 40.0393C40.4019 40.5334 40.8871 40.7804 41.5121 40.7804Z" fill="#FF61F6"/>
</svg>
