<svg width="76" height="72" viewBox="0 0 76 72" fill="none" xmlns="http://www.w3.org/2000/svg">
<path d="M0 22.8572C0 10.2335 10.2335 0 22.8571 0H52.2568C64.8805 0 75.114 10.2335 75.114 22.8571V48.9078C75.114 61.5314 64.8805 71.7649 52.2568 71.7649H22.8571C10.2335 71.7649 0 61.5314 0 48.9078V22.8572Z" fill="#F6F6F6"/>
<path d="M17.2251 25.6001C17.2251 20.5507 21.3185 16.4573 26.368 16.4573H49.4716C54.521 16.4573 58.6144 20.5507 58.6144 25.6001V46.8584C58.6144 51.9078 54.521 56.0012 49.4716 56.0012H26.368C21.3185 56.0012 17.2251 51.9078 17.2251 46.8584V25.6001Z" fill="#AEEA7F"/>
<path d="M31.4132 36.2118H35.0382V40.9493C34.559 41.1076 34.0611 41.2347 33.5444 41.3305C33.0278 41.4222 32.4424 41.468 31.7882 41.468C30.8799 41.468 30.109 41.2889 29.4757 40.9305C28.8424 40.5722 28.3611 40.043 28.0319 39.343C27.7028 38.643 27.5382 37.7826 27.5382 36.7618C27.5382 35.8034 27.7215 34.9743 28.0882 34.2743C28.459 33.5743 28.9986 33.0326 29.7069 32.6493C30.4194 32.2659 31.2882 32.0743 32.3132 32.0743C32.7965 32.0743 33.2736 32.1264 33.7444 32.2305C34.2153 32.3347 34.6424 32.4701 35.0257 32.6368L34.3819 34.1868C34.1028 34.0451 33.784 33.9264 33.4257 33.8305C33.0674 33.7347 32.6924 33.6868 32.3007 33.6868C31.7382 33.6868 31.2486 33.8159 30.8319 34.0743C30.4194 34.3326 30.0986 34.6951 29.8694 35.1618C29.6444 35.6243 29.5319 36.1701 29.5319 36.7993C29.5319 37.3951 29.6132 37.9243 29.7757 38.3868C29.9382 38.8451 30.1944 39.2055 30.5444 39.468C30.8944 39.7264 31.3507 39.8555 31.9132 39.8555C32.1882 39.8555 32.4194 39.843 32.6069 39.818C32.7986 39.7889 32.9778 39.7597 33.1444 39.7305V37.8243H31.4132V36.2118ZM37.2194 41.343V32.2055H39.1569V41.343H37.2194ZM43.3632 41.343H41.4569V32.2055H46.6944V33.793H43.3632V36.1493H46.4632V37.7305H43.3632V41.343Z" fill="#577E39"/>
</svg>
