<svg width="76" height="72" viewBox="0 0 76 72" fill="none" xmlns="http://www.w3.org/2000/svg">
<path d="M0 22.8572C0 10.2335 10.2335 0 22.8571 0H52.2568C64.8805 0 75.114 10.2335 75.114 22.8571V48.9078C75.114 61.5314 64.8805 71.7649 52.2568 71.7649H22.8571C10.2335 71.7649 0 61.5314 0 48.9078V22.8572Z" fill="#F6F6F6"/>
<path d="M17.4512 25.6001C17.4512 20.5507 21.5446 16.4573 26.594 16.4573H49.6976C54.7471 16.4573 58.8405 20.5507 58.8405 25.6001V46.8584C58.8405 51.9078 54.7471 56.0012 49.6976 56.0012H26.594C21.5446 56.0012 17.4512 51.9078 17.4512 46.8584V25.6001Z" fill="#FFD772"/>
<rect x="28.4224" y="29.2573" width="19.2" height="13.7143" rx="2.74286" fill="#C59419"/>
<path d="M35.6634 36.7437L33.2948 39.6512C32.8083 40.2484 33.2333 41.1429 34.0037 41.1429H44.8796C45.3845 41.1429 45.7939 40.7336 45.7939 40.2286V39.5756V37.8381C45.7939 37.6113 45.7096 37.3927 45.5574 37.2245L43.2023 34.6227C42.825 34.2059 42.1645 34.2251 41.8121 34.6631L39.3717 37.6962C39.0193 38.1342 38.3588 38.1534 37.9815 37.7366L37.0501 36.7076C36.6743 36.2925 36.0171 36.3096 35.6634 36.7437Z" fill="#FFD772"/>
<circle cx="33.9082" cy="32.9143" r="1.82857" fill="#FFD772"/>
</svg>
