<svg width="207" height="205" viewBox="0 0 207 205" fill="none" xmlns="http://www.w3.org/2000/svg">
<line opacity="0.2" x1="48.9362" y1="165.799" x2="48.9362" y2="2.86461e-08" stroke="black" stroke-width="1.07681" stroke-dasharray="4.31 6.46"/>
<line opacity="0.2" x1="156.068" y1="165.799" x2="156.068" y2="2.86461e-08" stroke="black" stroke-width="1.07681" stroke-dasharray="4.31 6.46"/>
<line opacity="0.2" x1="27.6799" y1="165.799" x2="27.6798" y2="2.86461e-08" stroke="black" stroke-width="1.07681" stroke-dasharray="4.31 6.46"/>
<line opacity="0.2" x1="113.13" y1="165.799" x2="113.13" y2="2.86461e-08" stroke="black" stroke-width="1.07681" stroke-dasharray="4.31 6.46"/>
<line opacity="0.2" x1="6.42351" y1="165.799" x2="6.4235" y2="2.86461e-08" stroke="black" stroke-width="1.07681" stroke-dasharray="4.31 6.46"/>
<line opacity="0.2" x1="70.6178" y1="165.799" x2="70.6178" y2="2.86461e-08" stroke="black" stroke-width="1.07681" stroke-dasharray="4.31 6.46"/>
<line opacity="0.2" x1="91.8737" y1="165.799" x2="91.8737" y2="2.86461e-08" stroke="black" stroke-width="1.07681" stroke-dasharray="4.31 6.46"/>
<line opacity="0.2" x1="177.324" y1="165.799" x2="177.324" y2="2.86461e-08" stroke="black" stroke-width="1.07681" stroke-dasharray="4.31 6.46"/>
<line opacity="0.2" x1="134.386" y1="165.799" x2="134.386" y2="2.86461e-08" stroke="black" stroke-width="1.07681" stroke-dasharray="4.31 6.46"/>
<line opacity="0.2" x1="198.58" y1="165.799" x2="198.58" y2="2.93606e-08" stroke="black" stroke-width="1.07681" stroke-dasharray="4.31 6.46"/>
<path d="M2.28589 123.711C7.69138 123.54 13.4291 120.03 18.7105 116.8C19.5583 116.282 20.3963 115.763 21.2271 115.249C26.9855 111.686 32.3947 108.34 38.2707 106.706C41.1246 105.833 44.1118 105.368 47.1699 104.892C50.6619 104.348 54.2464 103.79 57.831 102.594C59.9101 101.958 62.0599 101.063 64.2323 100.158C68.4469 98.4026 72.7465 96.6119 76.78 96.6119C81.0579 96.6119 85.0884 98.2766 89.1864 99.9692C91.5293 100.937 93.8943 101.914 96.3402 102.594C102.453 104.837 109.177 104.837 115.289 99.6028C118.118 97.5584 120.946 94.588 123.729 91.6653C127.562 87.6398 131.308 83.7049 134.849 82.4053C139.341 81.1567 143.559 83.411 147.869 85.7141C150.012 86.8591 152.177 88.0161 154.41 88.7609C157.466 89.6956 160.675 89.6956 163.884 89.6956C167.093 89.6956 170.302 89.6956 173.359 90.6302C176.19 91.4173 179.021 92.9335 181.807 94.4253C185.637 96.4763 189.38 98.4812 192.919 98.4812C196.281 98.4812 199.49 96.9858 202.699 95.4904C203.064 95.3202 203.43 95.15 203.795 94.982" stroke="#CB5B66" stroke-width="4.57143" stroke-linecap="round"/>
<circle opacity="0.2" cx="134.499" cy="84.1746" r="17.8552" fill="#F39800"/>
<circle cx="134.499" cy="84.1743" r="9.35274" fill="#F39800"/>
<path d="M48.9673 198.029L46.1388 188.812H46.0664C46.0771 189.031 46.0932 189.363 46.1146 189.808C46.1414 190.247 46.1655 190.716 46.187 191.214C46.2084 191.712 46.2191 192.162 46.2191 192.564V198.029H43.9932V186.28H47.3843L50.1646 195.264H50.2129L53.162 186.28H56.553V198.029H54.2307V192.468C54.2307 192.098 54.2361 191.672 54.2468 191.19C54.2629 190.708 54.2816 190.25 54.303 189.816C54.3245 189.377 54.3405 189.047 54.3513 188.828H54.2789L51.2495 198.029H48.9673ZM67.4896 193.521C67.4896 194.271 67.3879 194.935 67.1843 195.513C66.9861 196.092 66.6941 196.582 66.3084 196.984C65.928 197.38 65.4673 197.68 64.9263 197.884C64.3905 198.087 63.7852 198.189 63.1102 198.189C62.478 198.189 61.8968 198.087 61.3664 197.884C60.8414 197.68 60.3834 197.38 59.9923 196.984C59.6066 196.582 59.3066 196.092 59.0923 195.513C58.8834 194.935 58.7789 194.271 58.7789 193.521C58.7789 192.524 58.9557 191.68 59.3093 190.989C59.6629 190.298 60.1664 189.773 60.82 189.414C61.4736 189.055 62.253 188.876 63.1584 188.876C63.9995 188.876 64.7441 189.055 65.3923 189.414C66.0459 189.773 66.5575 190.298 66.9271 190.989C67.3021 191.68 67.4896 192.524 67.4896 193.521ZM61.278 193.521C61.278 194.11 61.3423 194.605 61.4709 195.007C61.5995 195.409 61.8004 195.712 62.0736 195.915C62.3468 196.119 62.703 196.221 63.1423 196.221C63.5763 196.221 63.9271 196.119 64.195 195.915C64.4682 195.712 64.6664 195.409 64.7896 195.007C64.9182 194.605 64.9825 194.11 64.9825 193.521C64.9825 192.926 64.9182 192.433 64.7896 192.042C64.6664 191.646 64.4682 191.348 64.195 191.15C63.9218 190.952 63.5655 190.853 63.1263 190.853C62.478 190.853 62.0066 191.075 61.712 191.52C61.4227 191.964 61.278 192.631 61.278 193.521ZM74.6173 188.876C75.5763 188.876 76.3477 189.138 76.9316 189.663C77.5155 190.183 77.8075 191.019 77.8075 192.171V198.029H75.3566V192.781C75.3566 192.138 75.2388 191.654 75.003 191.327C74.7727 191 74.4084 190.837 73.9102 190.837C73.1602 190.837 72.6486 191.091 72.3754 191.6C72.1021 192.109 71.9655 192.843 71.9655 193.802V198.029H69.5146V189.045H71.387L71.7164 190.194H71.853C72.0459 189.883 72.2843 189.631 72.5682 189.438C72.8575 189.246 73.1763 189.104 73.5245 189.012C73.878 188.921 74.2423 188.876 74.6173 188.876ZM82.7816 189.045V198.029H80.3307V189.045H82.7816ZM81.5602 185.525C81.9245 185.525 82.2379 185.611 82.5004 185.782C82.7629 185.948 82.8941 186.262 82.8941 186.722C82.8941 187.178 82.7629 187.494 82.5004 187.671C82.2379 187.842 81.9245 187.928 81.5602 187.928C81.1905 187.928 80.8745 187.842 80.612 187.671C80.3548 187.494 80.2263 187.178 80.2263 186.722C80.2263 186.262 80.3548 185.948 80.612 185.782C80.8745 185.611 81.1905 185.525 81.5602 185.525ZM89.1459 196.237C89.4138 196.237 89.6736 196.21 89.9254 196.156C90.1825 196.103 90.437 196.036 90.6888 195.955V197.779C90.4263 197.897 90.0995 197.994 89.7084 198.069C89.3227 198.149 88.8995 198.189 88.4388 198.189C87.903 198.189 87.4209 198.104 86.9923 197.932C86.5691 197.755 86.2343 197.453 85.9879 197.024C85.7468 196.59 85.6263 195.987 85.6263 195.216V190.885H84.453V189.848L85.803 189.029L86.5102 187.132H88.0771V189.045H90.5923V190.885H88.0771V195.216C88.0771 195.559 88.1736 195.816 88.3664 195.987C88.5646 196.154 88.8245 196.237 89.1459 196.237ZM100.677 193.521C100.677 194.271 100.575 194.935 100.372 195.513C100.174 196.092 99.8816 196.582 99.4959 196.984C99.1155 197.38 98.6548 197.68 98.1138 197.884C97.578 198.087 96.9727 198.189 96.2977 198.189C95.6655 198.189 95.0843 198.087 94.5539 197.884C94.0289 197.68 93.5709 197.38 93.1798 196.984C92.7941 196.582 92.4941 196.092 92.2798 195.513C92.0709 194.935 91.9664 194.271 91.9664 193.521C91.9664 192.524 92.1432 191.68 92.4968 190.989C92.8504 190.298 93.3539 189.773 94.0075 189.414C94.6611 189.055 95.4405 188.876 96.3459 188.876C97.187 188.876 97.9316 189.055 98.5798 189.414C99.2334 189.773 99.745 190.298 100.115 190.989C100.49 191.68 100.677 192.524 100.677 193.521ZM94.4655 193.521C94.4655 194.11 94.5298 194.605 94.6584 195.007C94.787 195.409 94.9879 195.712 95.2611 195.915C95.5343 196.119 95.8905 196.221 96.3298 196.221C96.7638 196.221 97.1147 196.119 97.3825 195.915C97.6557 195.712 97.8539 195.409 97.9772 195.007C98.1057 194.605 98.17 194.11 98.17 193.521C98.17 192.926 98.1057 192.433 97.9772 192.042C97.8539 191.646 97.6557 191.348 97.3825 191.15C97.1093 190.952 96.753 190.853 96.3138 190.853C95.6655 190.853 95.1941 191.075 94.8995 191.52C94.6102 191.964 94.4655 192.631 94.4655 193.521ZM107.716 188.876C107.84 188.876 107.982 188.884 108.142 188.9C108.308 188.911 108.442 188.927 108.544 188.948L108.359 191.246C108.279 191.22 108.164 191.201 108.014 191.19C107.869 191.174 107.743 191.166 107.636 191.166C107.32 191.166 107.012 191.206 106.712 191.287C106.417 191.367 106.152 191.498 105.916 191.68C105.681 191.857 105.493 192.093 105.354 192.387C105.22 192.677 105.153 193.033 105.153 193.456V198.029H102.702V189.045H104.558L104.92 190.555H105.041C105.217 190.25 105.437 189.971 105.699 189.72C105.967 189.462 106.27 189.259 106.608 189.109C106.95 188.954 107.32 188.876 107.716 188.876ZM119.103 191.431H123.764V197.522C123.148 197.726 122.508 197.889 121.843 198.012C121.179 198.13 120.426 198.189 119.585 198.189C118.417 198.189 117.426 197.959 116.612 197.498C115.798 197.037 115.179 196.357 114.756 195.457C114.333 194.557 114.121 193.451 114.121 192.138C114.121 190.906 114.357 189.84 114.828 188.94C115.305 188.04 115.999 187.344 116.909 186.851C117.825 186.358 118.942 186.112 120.26 186.112C120.882 186.112 121.495 186.179 122.1 186.312C122.706 186.446 123.255 186.621 123.748 186.835L122.92 188.828C122.561 188.646 122.151 188.493 121.691 188.37C121.23 188.246 120.748 188.185 120.244 188.185C119.521 188.185 118.891 188.351 118.356 188.683C117.825 189.015 117.413 189.481 117.118 190.081C116.829 190.676 116.684 191.378 116.684 192.187C116.684 192.953 116.789 193.633 116.998 194.228C117.207 194.817 117.536 195.28 117.986 195.618C118.436 195.95 119.023 196.116 119.746 196.116C120.099 196.116 120.397 196.1 120.638 196.068C120.884 196.03 121.115 195.993 121.329 195.955V193.504H119.103V191.431ZM131.39 188.876C131.513 188.876 131.655 188.884 131.816 188.9C131.982 188.911 132.116 188.927 132.217 188.948L132.033 191.246C131.952 191.22 131.837 191.201 131.687 191.19C131.542 191.174 131.416 191.166 131.309 191.166C130.993 191.166 130.685 191.206 130.385 191.287C130.091 191.367 129.825 191.498 129.59 191.68C129.354 191.857 129.166 192.093 129.027 192.387C128.893 192.677 128.826 193.033 128.826 193.456V198.029H126.375V189.045H128.232L128.593 190.555H128.714C128.891 190.25 129.11 189.971 129.373 189.72C129.641 189.462 129.943 189.259 130.281 189.109C130.624 188.954 130.993 188.876 131.39 188.876ZM142.013 193.521C142.013 194.271 141.911 194.935 141.708 195.513C141.509 196.092 141.217 196.582 140.832 196.984C140.451 197.38 139.991 197.68 139.449 197.884C138.914 198.087 138.308 198.189 137.633 198.189C137.001 198.189 136.42 198.087 135.89 197.884C135.365 197.68 134.907 197.38 134.516 196.984C134.13 196.582 133.83 196.092 133.616 195.513C133.407 194.935 133.302 194.271 133.302 193.521C133.302 192.524 133.479 191.68 133.833 190.989C134.186 190.298 134.69 189.773 135.343 189.414C135.997 189.055 136.776 188.876 137.682 188.876C138.523 188.876 139.267 189.055 139.916 189.414C140.569 189.773 141.081 190.298 141.45 190.989C141.825 191.68 142.013 192.524 142.013 193.521ZM135.801 193.521C135.801 194.11 135.866 194.605 135.994 195.007C136.123 195.409 136.324 195.712 136.597 195.915C136.87 196.119 137.226 196.221 137.666 196.221C138.099 196.221 138.45 196.119 138.718 195.915C138.991 195.712 139.19 195.409 139.313 195.007C139.441 194.605 139.506 194.11 139.506 193.521C139.506 192.926 139.441 192.433 139.313 192.042C139.19 191.646 138.991 191.348 138.718 191.15C138.445 190.952 138.089 190.853 137.649 190.853C137.001 190.853 136.53 191.075 136.235 191.52C135.946 191.964 135.801 192.631 135.801 193.521ZM151.423 198.029L150.732 194.887C150.694 194.699 150.633 194.423 150.547 194.059C150.461 193.689 150.367 193.296 150.266 192.878C150.169 192.454 150.078 192.063 149.992 191.704C149.912 191.346 149.853 191.083 149.816 190.917H149.743C149.706 191.083 149.647 191.346 149.566 191.704C149.486 192.063 149.395 192.454 149.293 192.878C149.197 193.301 149.106 193.7 149.02 194.075C148.934 194.445 148.87 194.726 148.827 194.919L148.104 198.029H145.468L142.913 189.045H145.356L146.392 193.022C146.462 193.301 146.529 193.633 146.593 194.019C146.658 194.399 146.714 194.769 146.762 195.128C146.816 195.481 146.856 195.762 146.883 195.971H146.947C146.958 195.816 146.979 195.61 147.011 195.353C147.049 195.096 147.089 194.83 147.132 194.557C147.18 194.279 147.223 194.029 147.26 193.81C147.303 193.585 147.335 193.432 147.357 193.352L148.466 189.045H151.166L152.218 193.352C152.256 193.507 152.304 193.754 152.363 194.091C152.427 194.429 152.483 194.777 152.532 195.136C152.58 195.489 152.607 195.768 152.612 195.971H152.676C152.698 195.789 152.735 195.519 152.789 195.16C152.842 194.801 152.904 194.426 152.974 194.035C153.049 193.638 153.124 193.301 153.199 193.022L154.275 189.045H156.678L154.091 198.029H151.423ZM161.917 196.237C162.185 196.237 162.445 196.21 162.697 196.156C162.954 196.103 163.208 196.036 163.46 195.955V197.779C163.198 197.897 162.871 197.994 162.48 198.069C162.094 198.149 161.671 198.189 161.21 198.189C160.674 198.189 160.192 198.104 159.764 197.932C159.341 197.755 159.006 197.453 158.759 197.024C158.518 196.59 158.398 195.987 158.398 195.216V190.885H157.224V189.848L158.574 189.029L159.282 187.132H160.849V189.045H163.364V190.885H160.849V195.216C160.849 195.559 160.945 195.816 161.138 195.987C161.336 196.154 161.596 196.237 161.917 196.237ZM167.735 185.525V188.072C167.735 188.517 167.719 188.94 167.687 189.342C167.66 189.744 167.639 190.028 167.623 190.194H167.751C167.944 189.883 168.172 189.631 168.434 189.438C168.702 189.246 168.997 189.104 169.318 189.012C169.64 188.921 169.985 188.876 170.355 188.876C171.003 188.876 171.568 188.991 172.05 189.221C172.533 189.446 172.908 189.803 173.175 190.29C173.443 190.772 173.577 191.399 173.577 192.171V198.029H171.126V192.781C171.126 192.138 171.008 191.654 170.773 191.327C170.537 191 170.173 190.837 169.68 190.837C169.187 190.837 168.799 190.952 168.515 191.182C168.231 191.407 168.03 191.742 167.912 192.187C167.794 192.626 167.735 193.164 167.735 193.802V198.029H165.284V185.525H167.735Z" fill="#A8A8A8"/>
<path d="M122.426 47.4759C122.426 48.4134 122.356 49.3435 122.214 50.2661C122.08 51.1887 121.842 52.0593 121.5 52.8777C121.158 53.6887 120.678 54.4105 120.06 55.0429C119.443 55.6679 118.658 56.159 117.705 56.5161C116.753 56.8733 115.6 57.0518 114.246 57.0518C113.926 57.0518 113.55 57.0369 113.118 57.0072C112.687 56.9849 112.33 56.9477 112.047 56.8956V54.1277C112.344 54.2021 112.661 54.2616 112.996 54.3063C113.33 54.3435 113.669 54.3621 114.011 54.3621C115.373 54.3621 116.422 54.1463 117.158 53.7148C117.903 53.2832 118.423 52.6843 118.721 51.9179C119.026 51.1515 119.201 50.2661 119.246 49.2616H119.112C118.896 49.6188 118.639 49.9425 118.342 50.2326C118.051 50.5154 117.679 50.7423 117.225 50.9134C116.772 51.0771 116.195 51.159 115.496 51.159C114.565 51.159 113.754 50.9581 113.063 50.5563C112.378 50.1471 111.846 49.5593 111.467 48.7929C111.094 48.0191 110.908 47.0853 110.908 45.9916C110.908 44.8085 111.132 43.7966 111.578 42.9558C112.032 42.1076 112.676 41.4566 113.509 41.0027C114.342 40.5489 115.324 40.3219 116.455 40.3219C117.289 40.3219 118.066 40.467 118.788 40.7572C119.51 41.0399 120.142 41.4752 120.685 42.063C121.236 42.6508 121.664 43.3948 121.969 44.2951C122.274 45.1954 122.426 46.2557 122.426 47.4759ZM116.522 43.0898C115.853 43.0898 115.306 43.3204 114.882 43.7817C114.458 44.243 114.246 44.9648 114.246 45.9469C114.246 46.7356 114.428 47.3606 114.792 47.8219C115.157 48.2832 115.711 48.5139 116.455 48.5139C116.969 48.5139 117.415 48.4023 117.795 48.1791C118.174 47.9484 118.468 47.6619 118.676 47.3197C118.892 46.97 119 46.6128 119 46.2483C119 45.8688 118.948 45.493 118.844 45.121C118.74 44.749 118.583 44.4105 118.375 44.1054C118.167 43.8003 117.906 43.5548 117.594 43.3688C117.289 43.1828 116.932 43.0898 116.522 43.0898ZM135.484 48.6701C135.484 49.9871 135.38 51.1627 135.172 52.1969C134.971 53.2311 134.644 54.1091 134.19 54.8308C133.743 55.5526 133.156 56.1032 132.426 56.4826C131.697 56.8621 130.812 57.0518 129.77 57.0518C128.461 57.0518 127.385 56.7207 126.545 56.0585C125.704 55.3889 125.083 54.4291 124.681 53.1791C124.279 51.9216 124.078 50.4186 124.078 48.6701C124.078 46.9067 124.26 45.4 124.625 44.15C124.997 42.8926 125.6 41.9291 126.433 41.2594C127.266 40.5898 128.379 40.255 129.77 40.255C131.072 40.255 132.144 40.5898 132.984 41.2594C133.833 41.9216 134.461 42.8814 134.871 44.1389C135.28 45.3889 135.484 46.8993 135.484 48.6701ZM127.504 48.6701C127.504 49.9127 127.571 50.9506 127.705 51.784C127.847 52.6099 128.081 53.2311 128.408 53.6478C128.736 54.0645 129.19 54.2728 129.77 54.2728C130.343 54.2728 130.793 54.0682 131.121 53.659C131.455 53.2423 131.693 52.621 131.835 51.7951C131.976 50.9618 132.047 49.9201 132.047 48.6701C132.047 47.4276 131.976 46.3896 131.835 45.5563C131.693 44.723 131.455 44.098 131.121 43.6813C130.793 43.2572 130.343 43.0451 129.77 43.0451C129.19 43.0451 128.736 43.2572 128.408 43.6813C128.081 44.098 127.847 44.723 127.705 45.5563C127.571 46.3896 127.504 47.4276 127.504 48.6701ZM140.886 40.2773C142.166 40.2773 143.137 40.7237 143.799 41.6166C144.461 42.5094 144.792 43.7631 144.792 45.3777C144.792 46.9923 144.48 48.2535 143.855 49.1612C143.23 50.0689 142.24 50.5228 140.886 50.5228C139.629 50.5228 138.673 50.0689 138.018 49.1612C137.363 48.2535 137.036 46.9923 137.036 45.3777C137.036 43.7631 137.341 42.5094 137.951 41.6166C138.568 40.7237 139.547 40.2773 140.886 40.2773ZM140.908 42.6099C140.544 42.6099 140.276 42.8405 140.105 43.3018C139.934 43.7631 139.848 44.4625 139.848 45.4C139.848 46.3375 139.934 47.0407 140.105 47.5094C140.276 47.9782 140.544 48.2125 140.908 48.2125C141.273 48.2125 141.541 47.9819 141.712 47.5206C141.891 47.0518 141.98 46.345 141.98 45.4C141.98 44.4625 141.891 43.7631 141.712 43.3018C141.541 42.8405 141.273 42.6099 140.908 42.6099ZM152.471 40.5116L143.42 56.8286H140.741L149.792 40.5116H152.471ZM152.315 46.7951C153.594 46.7951 154.565 47.2416 155.228 48.1344C155.89 49.0273 156.221 50.281 156.221 51.8956C156.221 53.5027 155.908 54.7602 155.283 55.6679C154.658 56.5756 153.669 57.0295 152.315 57.0295C151.057 57.0295 150.101 56.5756 149.446 55.6679C148.792 54.7602 148.464 53.5027 148.464 51.8956C148.464 50.281 148.769 49.0273 149.379 48.1344C149.997 47.2416 150.975 46.7951 152.315 46.7951ZM152.337 49.1277C151.972 49.1277 151.705 49.3584 151.533 49.8197C151.362 50.281 151.277 50.9804 151.277 51.9179C151.277 52.8554 151.362 53.5585 151.533 54.0273C151.705 54.496 151.972 54.7304 152.337 54.7304C152.702 54.7304 152.969 54.4997 153.141 54.0384C153.319 53.5697 153.408 52.8628 153.408 51.9179C153.408 50.9804 153.319 50.281 153.141 49.8197C152.969 49.3584 152.702 49.1277 152.337 49.1277Z" fill="#1B2534"/>
</svg>
