<svg width="76" height="72" viewBox="0 0 76 72" fill="none" xmlns="http://www.w3.org/2000/svg">
<path d="M0 22.8572C0 10.2335 10.2335 0 22.8571 0H52.2568C64.8805 0 75.114 10.2335 75.114 22.8571V48.9078C75.114 61.5314 64.8805 71.7649 52.2568 71.7649H22.8571C10.2335 71.7649 0 61.5314 0 48.9078V22.8572Z" fill="#F6F6F6"/>
<path d="M17.2256 25.6001C17.2256 20.5507 21.319 16.4573 26.3684 16.4573H49.472C54.5215 16.4573 58.6149 20.5507 58.6149 25.6001V46.8584C58.6149 51.9078 54.5215 56.0012 49.4721 56.0012H26.3685C21.319 56.0012 17.2256 51.9078 17.2256 46.8584V25.6001Z" fill="#F68DFF"/>
<path d="M40.9885 25.6171C41.1271 25.6439 41.2575 25.7019 41.3694 25.7866C41.4817 25.8704 41.5725 25.9787 41.6349 26.1029C41.6972 26.2271 41.7292 26.3638 41.7285 26.5023V29.5167L34.2491 31.3171L34.2417 31.3191C33.9805 31.3837 33.8119 31.5891 33.8119 31.842V39.197C33.8098 39.5435 33.6972 39.8807 33.49 40.1612C33.2828 40.4418 32.9914 40.6516 32.6566 40.7613L31.8847 41.0368L31.8713 41.0413C31.6691 41.1083 31.4573 41.1426 31.244 41.143C30.8362 41.1423 30.439 41.0153 30.1091 40.7801C29.853 40.6002 29.6446 40.3625 29.5017 40.0869C29.3588 39.8114 29.2856 39.5062 29.2882 39.197C29.2882 38.4369 29.7434 37.7961 30.4463 37.5654L32.2841 36.9409L32.2883 36.9391C32.5269 36.8604 32.681 36.6585 32.681 36.4246V28.5839C32.6785 28.3355 32.7602 28.0933 32.9132 27.8954C33.0662 27.6975 33.2819 27.5552 33.5263 27.4907L40.5707 25.6318C40.7069 25.5953 40.85 25.5902 40.9885 25.6171Z" fill="#C038CC"/>
<path d="M45.9743 31.1028C46.1128 31.1296 46.2432 31.1877 46.3551 31.2723C46.4674 31.3561 46.5583 31.4644 46.6206 31.5886C46.6829 31.7128 46.7149 31.8495 46.7142 31.988V35.0024L39.2348 36.8028L39.2274 36.8049C38.9662 36.8694 38.7976 37.0748 38.7976 37.3277V44.6827C38.7955 45.0292 38.6829 45.3664 38.4757 45.6469C38.2686 45.9275 37.9771 46.1373 37.6423 46.247L36.8704 46.5225L36.857 46.527C36.6549 46.594 36.443 46.6283 36.2297 46.6287C35.8219 46.628 35.4248 46.501 35.0949 46.2658C34.8387 46.0859 34.6303 45.8482 34.4874 45.5727C34.3445 45.2971 34.2713 44.9919 34.2739 44.6827C34.2739 43.9226 34.7291 43.2818 35.432 43.0511L37.2698 42.4266L37.274 42.4249C37.5126 42.3461 37.6667 42.1442 37.6667 41.9104V34.0696C37.6642 33.8212 37.7459 33.579 37.8989 33.3811C38.052 33.1832 38.2676 33.0409 38.5121 32.9764L45.5564 31.1175C45.6926 31.081 45.8357 31.0759 45.9743 31.1028Z" fill="#C038CC"/>
</svg>
