<svg width="72" height="72" viewBox="0 0 72 72" fill="none" xmlns="http://www.w3.org/2000/svg">
<path d="M0 22.8572C0 10.2335 10.2335 0 22.8571 0H48.9078C61.5314 0 71.7649 10.2335 71.7649 22.8571V48.9078C71.7649 61.5314 61.5314 71.7649 48.9078 71.7649H22.8572C10.2335 71.7649 0 61.5314 0 48.9078V22.8572Z" fill="#F6F6F6"/>
<path d="M16.1108 25.2532C16.1108 20.2037 20.2042 16.1104 25.2537 16.1104H46.5119C51.5614 16.1104 55.6548 20.2037 55.6548 25.2532V46.5114C55.6548 51.5609 51.5614 55.6543 46.5119 55.6543H25.2537C20.2042 55.6543 16.1108 51.5609 16.1108 46.5114V25.2532Z" fill="#001E36"/>
<path d="M30.1185 28.9571C32.0557 28.9571 33.4692 29.3747 34.3591 30.2098C35.249 31.0381 35.6939 32.1812 35.6939 33.6393C35.6939 34.2964 35.5946 34.9262 35.3961 35.5286C35.1976 36.1241 34.8725 36.6546 34.4207 37.1201C33.9757 37.5856 33.3802 37.9552 32.6341 38.229C31.888 38.496 30.9673 38.6295 29.872 38.6295H28.5064V43.9688H25.3234V28.9571H30.1185ZM29.9542 31.5652H28.5064V36.0214H29.5537C30.1493 36.0214 30.6661 35.9427 31.1042 35.7853C31.5423 35.6278 31.8811 35.3814 32.1207 35.046C32.3603 34.7106 32.4801 34.2793 32.4801 33.7522C32.4801 33.0129 32.2747 32.4653 31.864 32.1094C31.4533 31.7466 30.8167 31.5652 29.9542 31.5652ZM46.2903 40.5598C46.2903 41.3402 46.1055 42.0007 45.7359 42.5415C45.3731 43.0754 44.8289 43.4827 44.1033 43.7634C43.3777 44.0372 42.4741 44.1741 41.3926 44.1741C40.5917 44.1741 39.9037 44.1228 39.3287 44.0201C38.7606 43.9174 38.1856 43.7463 37.6037 43.5067V40.9192C38.2266 41.1999 38.8941 41.4326 39.606 41.6174C40.3247 41.7954 40.9545 41.8844 41.4952 41.8844C42.1045 41.8844 42.5391 41.7954 42.7993 41.6174C43.0662 41.4326 43.1997 41.193 43.1997 40.8987C43.1997 40.707 43.1449 40.5359 43.0354 40.3853C42.9327 40.2278 42.7069 40.0533 42.3577 39.8616C42.0086 39.6631 41.461 39.4064 40.7149 39.0915C39.9961 38.7903 39.404 38.4857 38.9385 38.1777C38.4799 37.8696 38.1377 37.5068 37.9118 37.0893C37.6927 36.6649 37.5832 36.1275 37.5832 35.4772C37.5832 34.4162 37.9939 33.6187 38.8153 33.0848C39.6436 32.544 40.7491 32.2737 42.1319 32.2737C42.8438 32.2737 43.5214 32.3455 44.1649 32.4893C44.8152 32.633 45.4826 32.8624 46.1671 33.1772L45.2225 35.4362C44.6543 35.1897 44.117 34.9878 43.6104 34.8304C43.1107 34.6729 42.6007 34.5942 42.0805 34.5942C41.6219 34.5942 41.2762 34.6558 41.0435 34.779C40.8107 34.9022 40.6944 35.0905 40.6944 35.3437C40.6944 35.5286 40.7525 35.6929 40.8689 35.8366C40.9921 35.9804 41.2249 36.1412 41.5671 36.3192C41.9162 36.4903 42.4262 36.7128 43.097 36.9866C43.7473 37.2536 44.3121 37.5342 44.7912 37.8286C45.2704 38.1161 45.64 38.4754 45.9002 38.9067C46.1603 39.3311 46.2903 39.8821 46.2903 40.5598Z" fill="#30A8FF"/>
</svg>
