<svg width="76" height="72" viewBox="0 0 76 72" fill="none" xmlns="http://www.w3.org/2000/svg">
<path d="M0 22.8572C0 10.2335 10.2335 0 22.8571 0H52.2568C64.8805 0 75.114 10.2335 75.114 22.8571V48.9078C75.114 61.5314 64.8805 71.7649 52.2568 71.7649H22.8571C10.2335 71.7649 0 61.5314 0 48.9078V22.8572Z" fill="#F6F6F6"/>
<path d="M17.2256 25.6001C17.2256 20.5507 21.319 16.4573 26.3684 16.4573H49.472C54.5215 16.4573 58.6149 20.5507 58.6149 25.6001V46.8584C58.6149 51.9078 54.5215 56.0012 49.4721 56.0012H26.3685C21.319 56.0012 17.2256 51.9078 17.2256 46.8584V25.6001Z" fill="#88A2FF"/>
<rect x="26.1123" y="29.2573" width="15.5429" height="12.8" rx="1.82857" fill="#365BDD"/>
<path d="M43.4818 36.8327C43.0168 36.4666 43.0168 35.762 43.4818 35.3959L48.6323 31.3409C49.2321 30.8687 50.1122 31.296 50.1122 32.0593L50.1122 40.1693C50.1122 40.9326 49.2321 41.3599 48.6323 40.8877L43.4818 36.8327Z" fill="#365BDD"/>
</svg>
