<svg width="95" height="95" viewBox="0 0 95 95" fill="none" xmlns="http://www.w3.org/2000/svg">
<rect width="95" height="95" rx="20" fill="#C4F5C9"/>
<path d="M56 50V35.8571C56 34.0385 55.1571 32.2944 53.6569 31.0084C52.1566 29.7224 50.1217 29 48 29C45.8783 29 43.8434 29.7224 42.3431 31.0084C40.8429 32.2944 40 34.0385 40 35.8571V50M37.5 45H58.5C60.9853 45 63 46.7382 63 48.8824V63.1176C63 65.2618 60.9853 67 58.5 67H37.5C35.0147 67 33 65.2618 33 63.1176V48.8824C33 46.7382 35.0147 45 37.5 45Z" stroke="#5EBA67" stroke-width="2.5" stroke-linecap="round" stroke-linejoin="round"/>
</svg>
