<svg width="95" height="95" viewBox="0 0 95 95" fill="none" xmlns="http://www.w3.org/2000/svg">
<rect width="95" height="95" rx="20" fill="#FED8FF"/>
<path d="M27 42H68M47.2974 29L58.5294 30.4485C59.7977 30.6121 60.5888 31.9075 60.155 33.1105L56.7517 42.5479M47.2974 29L35.4546 30.4637C34.1912 30.6199 33.3932 31.9011 33.8103 33.1039L37.085 42.5479M47.2974 29L37.085 42.5479M47.2974 29L56.7517 42.5479M37.085 42.5479L45.3347 66.3395C45.964 68.1546 48.5414 68.1248 49.1286 66.2956L56.7517 42.5479M35.1555 29H58.9032C60.3158 29 61.6236 29.745 62.3439 30.96L67.6546 39.9174C68.4708 41.294 68.3879 43.0246 67.4439 44.3169L50.4929 67.5209C48.8828 69.7249 45.587 69.7046 44.0042 67.4809L27.4043 44.1596C26.5411 42.9468 26.4227 41.3549 27.0971 40.0278L31.5895 31.1878C32.2717 29.8455 33.6498 29 35.1555 29Z" stroke="#E074E3" stroke-width="2"/>
</svg>
