<svg width="68" height="68" viewBox="0 0 68 68" fill="none" xmlns="http://www.w3.org/2000/svg">
<rect width="67.5857" height="67.5857" rx="16.2857" fill="#F563D3"/>
<path d="M17.1568 25.256C17.1682 25.32 17.1775 25.384 17.1813 25.4485C17.2296 26.2768 17.8558 32.8856 25.7283 40.9322C25.7283 40.9322 32.5288 47.8625 39.6861 49.3196C39.7171 49.326 39.7475 49.3329 39.7784 49.3415C40.2118 49.4593 43.8961 50.3906 45.7952 48.486L48.5009 45.8288C48.5253 45.8048 48.5509 45.7814 48.5769 45.759C48.8468 45.527 50.7259 43.7909 48.8463 41.945C46.9439 40.0767 44.5456 37.7988 44.2741 37.5406C44.261 37.5283 44.2485 37.5161 44.2361 37.5033C44.0889 37.3529 42.691 36.0003 41.0536 37.2361C41.0063 37.2718 40.9618 37.3118 40.9194 37.3534L38.2703 39.962C37.6767 40.5247 36.7339 40.5172 36.149 39.9455L27.0985 31.0914C26.4908 30.4967 26.5066 29.5255 27.1333 28.95L29.2513 27.0065C29.2513 27.0065 31.5719 24.8965 29.0797 22.6175L25.3802 18.9844C25.3574 18.962 25.3357 18.939 25.3139 18.915C25.075 18.6505 23.3018 16.8392 21.2213 18.8553C21.1577 18.9166 21.0888 18.9721 21.0154 19.0212C20.3094 19.4969 16.5991 22.1551 17.1568 25.256Z" fill="white"/>
<path d="M42.0926 31.7286C42.6656 31.7283 43.1374 31.2612 43.0562 30.694C42.956 29.9936 42.7547 29.3096 42.4569 28.6637C42.014 27.7029 41.3682 26.8493 40.5641 26.1617C39.7599 25.4741 38.8164 24.9688 37.7983 24.6806C37.1141 24.4868 36.4071 24.3941 35.6996 24.404C35.1267 24.4119 34.7386 24.9506 34.8273 25.5167C34.9161 26.0827 35.4497 26.4588 36.0222 26.4829C36.4308 26.5001 36.8372 26.565 37.233 26.6771C37.9627 26.8837 38.6391 27.2459 39.2156 27.7388C39.7921 28.2317 40.255 28.8436 40.5725 29.5324C40.7447 29.906 40.872 30.2974 40.9524 30.6984C41.0651 31.2602 41.5196 31.7289 42.0926 31.7286Z" fill="#F9A1E5"/>
<path d="M46.3769 31.8462C47.0671 31.9002 47.678 31.3832 47.6522 30.6914C47.6052 29.4331 47.3398 28.1893 46.8646 27.0164C46.232 25.4551 45.2451 24.0623 43.9817 22.948C42.7184 21.8337 41.2133 21.0284 39.5853 20.5958C38.3622 20.2707 37.0949 20.1627 35.8406 20.2733C35.151 20.334 34.7144 21.0047 34.8541 21.6827C34.9939 22.3608 35.658 22.7871 36.3493 22.7502C37.2195 22.7038 38.0942 22.7936 38.9414 23.0187C40.1937 23.3515 41.3516 23.971 42.3234 24.8282C43.2952 25.6854 44.0544 26.7568 44.541 27.9578C44.8702 28.7702 45.0685 29.6269 45.1311 30.496C45.1808 31.1866 45.6867 31.7922 46.3769 31.8462Z" fill="#F9A1E5"/>
</svg>
